M48
;GenerationSoftware,Autodesk,EAGLE,9.6.2*%
;CreationDate,2023-02-01T20:25:11Z*%
FMAT,2
ICI,OFF
METRIC,TZ,000.000
T5C0.254
T4C0.650
T3C0.800
T2C1.016
T1C3.302
%
G90
M71
T1
X20320Y64008
X2540Y117348
X20320Y117348
X72644Y64008
X2540Y2540
X20320Y2540
X2540Y55880
X20320Y55880
X90424Y64008
X72644Y117348
X25908Y64008
X25908Y2540
X43688Y2540
X25908Y55880
X43688Y55880
X43688Y64008
X25908Y117348
X43688Y117348
X49276Y2540
X67056Y2540
X49276Y55880
X67056Y55880
X90424Y117348
X113792Y64008
X49276Y64008
X72644Y2540
X90424Y2540
X72644Y55880
X90424Y55880
X67056Y64008
X49276Y117348
X67056Y117348
X96012Y2540
X113792Y2540
X96012Y55880
X113792Y55880
X96012Y117348
X113792Y117348
X96012Y64008
X2540Y64008
T2
X21590Y13970
X94742Y113538
X71374Y110998
X71374Y113538
X115062Y113538
X115062Y110998
X115062Y108458
X115062Y105918
X115062Y103378
X115062Y100838
X115062Y98298
X115062Y95758
X115062Y93218
X115062Y90678
X115062Y88138
X115062Y85598
X115062Y83058
X115062Y80518
X115062Y77978
X71374Y34290
X115062Y75438
X94742Y85598
X94742Y88138
X94742Y90678
X94742Y93218
X94742Y95758
X94742Y98298
X94742Y100838
X94742Y103378
X94742Y105918
X94742Y108458
X21590Y52070
X21590Y49530
X21590Y46990
X21590Y44450
X21590Y41910
X21590Y39370
X21590Y36830
X21590Y34290
X21590Y31750
X21590Y29210
X21590Y26670
X21590Y24130
X21590Y21590
X21590Y19050
X21590Y16510
X94742Y110998
X1270Y24130
X1270Y26670
X1270Y29210
X1270Y31750
X1270Y34290
X1270Y36830
X1270Y39370
X1270Y41910
X1270Y44450
X1270Y46990
X1270Y49530
X1270Y52070
X44958Y52070
X44958Y49530
X44958Y46990
X44958Y44450
X44958Y41910
X44958Y39370
X44958Y36830
X44958Y34290
X44958Y31750
X44958Y29210
X44958Y26670
X44958Y24130
X44958Y21590
X44958Y19050
X44958Y16510
X44958Y13970
X24638Y24130
X24638Y26670
X24638Y29210
X24638Y31750
X24638Y34290
X24638Y36830
X24638Y39370
X24638Y41910
X24638Y44450
X24638Y46990
X24638Y49530
X24638Y52070
X68326Y52070
X68326Y49530
X68326Y46990
X68326Y44450
X68326Y41910
X68326Y39370
X68326Y36830
X68326Y34290
X68326Y31750
X68326Y29210
X68326Y26670
X68326Y24130
X68326Y21590
X68326Y19050
X68326Y16510
X68326Y13970
X48006Y24130
X48006Y26670
X48006Y29210
X48006Y31750
X48006Y34290
X48006Y36830
X48006Y39370
X48006Y41910
X48006Y44450
X48006Y46990
X48006Y49530
X48006Y52070
X91694Y52070
X91694Y49530
X91694Y46990
X91694Y44450
X91694Y41910
X91694Y39370
X91694Y36830
X91694Y34290
X91694Y31750
X91694Y29210
X91694Y26670
X91694Y24130
X91694Y21590
X91694Y19050
X91694Y16510
X91694Y13970
X71374Y24130
X71374Y26670
X71374Y29210
X71374Y31750
X91694Y85598
X71374Y36830
X71374Y39370
X71374Y41910
X71374Y44450
X71374Y46990
X71374Y49530
X71374Y52070
X115062Y52070
X115062Y49530
X115062Y46990
X115062Y44450
X115062Y41910
X115062Y39370
X115062Y36830
X115062Y34290
X115062Y31750
X115062Y29210
X115062Y26670
X115062Y24130
X115062Y21590
X115062Y19050
X115062Y16510
X115062Y13970
X94742Y24130
X94742Y26670
X94742Y29210
X94742Y31750
X94742Y34290
X94742Y36830
X94742Y39370
X94742Y41910
X94742Y44450
X94742Y46990
X94742Y49530
X94742Y52070
X21590Y113538
X21590Y110998
X21590Y108458
X21590Y105918
X21590Y103378
X21590Y100838
X21590Y98298
X21590Y95758
X21590Y93218
X21590Y90678
X21590Y88138
X21590Y85598
X21590Y83058
X21590Y80518
X21590Y77978
X21590Y75438
X1270Y85598
X1270Y88138
X1270Y90678
X1270Y93218
X1270Y95758
X1270Y98298
X1270Y100838
X1270Y103378
X1270Y105918
X1270Y108458
X1270Y110998
X1270Y113538
X44958Y113538
X44958Y110998
X44958Y108458
X44958Y105918
X44958Y103378
X44958Y100838
X44958Y98298
X44958Y95758
X44958Y93218
X44958Y90678
X44958Y88138
X44958Y85598
X44958Y83058
X44958Y80518
X44958Y77978
X44958Y75438
X24638Y85598
X24638Y88138
X24638Y90678
X24638Y93218
X24638Y95758
X24638Y98298
X24638Y100838
X24638Y103378
X24638Y105918
X24638Y108458
X24638Y110998
X24638Y113538
X68326Y113538
X68326Y110998
X68326Y108458
X68326Y105918
X68326Y103378
X68326Y100838
X68326Y98298
X68326Y95758
X68326Y93218
X68326Y90678
X68326Y88138
X68326Y85598
X68326Y83058
X68326Y80518
X68326Y77978
X68326Y75438
X48006Y85598
X48006Y88138
X48006Y90678
X48006Y93218
X48006Y95758
X48006Y98298
X48006Y100838
X48006Y103378
X48006Y105918
X48006Y108458
X48006Y110998
X48006Y113538
X91694Y113538
X91694Y110998
X91694Y108458
X91694Y105918
X91694Y103378
X91694Y100838
X91694Y98298
X91694Y95758
X91694Y93218
X91694Y90678
X91694Y88138
X91694Y83058
X91694Y80518
X91694Y77978
X91694Y75438
X71374Y85598
X71374Y88138
X71374Y90678
X71374Y93218
X71374Y95758
X71374Y98298
X71374Y100838
X71374Y103378
X71374Y105918
X71374Y108458
T3
X6002Y35500
X29370Y35500
X52738Y35500
X76106Y35500
X99474Y35500
X52738Y96968
X76106Y96968
X99474Y96968
X6002Y96968
X29370Y96968
T4
X8540Y4651
X14320Y4651
X31908Y4651
X37688Y4651
X55276Y4651
X61056Y4651
X78644Y4651
X84424Y4651
X102012Y4651
X107792Y4651
X8540Y66119
X14320Y66119
X31908Y66119
X37688Y66119
X55276Y66119
X61056Y66119
X78644Y66119
X84424Y66119
X102012Y66119
X107792Y66119
T5
X34239Y3487
X34798Y10109
X42111Y13868
X38288Y26970
X28692Y27244
X33632Y26995
X32344Y23955
X30797Y25286
X40983Y23261
X35441Y43459
X27841Y12558
X41374Y34247
X39682Y20274
X33696Y43645
X40891Y33680
X39006Y20270
X43561Y22949
X38532Y23360
X39206Y21969
X39141Y36645
X31874Y1247
X32055Y32669
X34049Y4874
X35050Y4869
X43637Y42873
X27247Y7894
X25862Y32906
X27236Y8893
X26345Y32235
X42573Y40185
X41615Y41620
X27775Y53104
X41740Y35916
X28517Y53155
X28931Y54176
X42464Y42852
X29268Y53216
X41275Y50673
X40048Y51559
X27963Y51031
X27719Y43569
X38052Y33785
X27137Y51034
X27142Y45301
X27175Y38395
X27785Y45136
X28471Y43528
X38197Y34821
X28123Y33289
X34354Y39299
X29075Y42682
X40091Y26104
X28445Y39271
X32212Y39395
X37059Y33000
X36609Y36843
X30521Y33777
X37351Y42273
X28052Y48786
X36292Y43388
X28047Y48082
X40277Y47158
X57203Y42456
X57856Y42436
X57849Y41735
X57213Y41730
X59632Y8039
X55941Y30584
X56446Y30574
X56444Y30058
X55941Y30069
X50683Y9893
X60203Y13106
X56264Y34399
X54729Y38534
X60701Y39169
X49152Y7681
X61150Y22154
X53736Y55040
X53741Y56546
X54301Y57311
X53072Y57322
X62577Y55040
X62562Y56557
X62001Y57311
X63282Y57311
X55401Y54311
X56501Y54311
X59801Y54311
X60901Y54311
X58701Y49361
X58151Y49911
X57601Y49361
X58151Y48811
X58701Y48261
X59251Y48811
X59251Y49911
X57051Y49911
X57051Y48811
X57601Y48261
X53751Y43861
X53201Y44411
X62551Y43861
X63101Y44411
X54301Y44961
X55401Y46061
X62001Y44961
X60901Y46061
X58701Y54311
X57601Y54311
X63261Y55817
X53082Y55811
X59251Y51561
X59251Y52661
X57051Y51561
X57051Y52661
X59251Y53761
X57051Y53761
X58166Y7798
X61796Y27940
X61404Y7633
X54008Y14585
X50195Y25385
X54404Y23155
X58260Y24016
X58908Y17714
X62865Y16853
X62873Y17531
X62184Y16899
X63553Y16873
X62842Y16165
X53370Y27219
X55425Y37960
X56378Y36228
X54892Y13754
X61278Y13078
X67564Y10485
X65852Y5865
X68402Y5362
X67005Y7902
X64516Y1270
X51816Y1270
X48006Y5080
X48006Y10160
X48006Y15875
X48006Y19685
X51054Y16764
X58306Y16822
X51816Y15748
X51816Y17780
X51943Y56388
X47498Y53848
X64389Y56388
X68453Y53594
X61773Y32032
X61758Y28903
X61214Y25273
X55687Y22139
X51244Y35202
X60109Y36165
X60366Y34369
X62103Y38354
X57661Y40267
X58603Y40668
X60434Y39891
X61483Y41648
X63401Y39621
X50546Y10922
X51816Y11684
X54356Y6985
X63881Y6858
X64008Y4064
X52451Y4826
X64966Y48361
X66424Y48305
X50425Y53073
X51598Y53865
X50284Y31562
X49809Y7175
X62113Y20869
X64412Y22433
X63373Y23940
X64755Y35128
X64775Y37671
X64803Y40970
X66431Y45382
X56962Y31354
X55634Y33673
X52530Y54871
X67282Y40780
X64971Y43495
X63646Y47863
X64639Y51369
X63430Y53187
X64244Y45606
X58966Y14265
X65359Y12512
X54234Y41567
X50065Y45887
X52310Y48623
X57023Y4097
X57607Y4072
X57023Y3513
X56947Y22962
X56947Y22174
X56642Y27813
X57607Y3487
X58166Y10109
X65479Y13868
X61656Y26970
X52060Y27244
X57000Y26995
X55712Y23955
X54165Y25286
X64351Y23261
X58809Y43459
X51209Y12558
X64742Y34247
X63050Y20274
X57064Y43645
X64259Y33680
X62374Y20270
X66929Y22949
X61900Y23360
X62574Y21969
X62509Y36645
X55242Y1247
X55423Y32669
X57417Y4874
X58418Y4869
X67005Y42873
X50615Y7894
X49230Y32906
X50604Y8893
X49713Y32235
X65941Y40185
X64983Y41620
X51143Y53104
X65108Y35916
X51885Y53155
X52299Y54176
X65832Y42852
X52636Y53216
X64643Y50673
X63416Y51559
X51331Y51031
X51087Y43569
X61420Y33785
X50505Y51034
X50510Y45301
X50543Y38395
X51153Y45136
X51839Y43528
X61565Y34821
X51491Y33289
X57721Y39299
X52443Y42682
X63459Y26104
X51813Y39271
X55580Y39395
X60427Y33000
X59977Y36843
X53889Y33777
X60719Y42273
X51420Y48786
X59660Y43388
X51415Y48082
X63645Y47158
X80571Y42456
X81224Y42436
X81217Y41735
X80582Y41730
X83000Y8039
X79309Y30584
X79814Y30574
X79812Y30058
X79309Y30069
X74051Y9893
X83571Y13106
X79632Y34399
X78097Y38534
X84069Y39169
X72520Y7681
X84519Y22154
X77104Y55040
X77109Y56546
X77669Y57311
X76440Y57322
X85945Y55040
X85930Y56557
X85369Y57311
X86650Y57311
X78769Y54311
X79869Y54311
X83169Y54311
X84269Y54311
X82069Y49361
X81519Y49911
X80969Y49361
X81519Y48811
X82069Y48261
X82619Y48811
X82619Y49911
X80419Y49911
X80419Y48811
X80969Y48261
X77119Y43861
X76569Y44411
X85919Y43861
X86469Y44411
X77669Y44961
X78769Y46061
X85369Y44961
X84269Y46061
X82069Y54311
X80969Y54311
X86629Y55817
X76450Y55811
X82619Y51561
X82619Y52661
X80419Y51561
X80419Y52661
X82619Y53761
X80419Y53761
X81534Y7798
X85164Y27940
X84773Y7633
X77376Y14585
X73563Y25385
X77772Y23155
X81628Y24016
X82276Y17714
X86233Y16853
X86241Y17531
X85552Y16899
X86921Y16873
X86210Y16165
X76738Y27219
X78793Y37960
X79746Y36228
X78260Y13754
X84646Y13078
X90932Y10485
X89220Y5865
X91770Y5362
X90373Y7902
X87884Y1270
X75184Y1270
X71374Y5080
X71374Y10160
X71374Y15875
X71374Y19685
X74422Y16764
X81674Y16822
X75184Y15748
X75184Y17780
X75311Y56388
X70866Y53848
X87757Y56388
X91821Y53594
X85141Y32032
X85126Y28903
X84582Y25273
X79055Y22139
X74612Y35202
X83477Y36165
X83734Y34369
X85471Y38354
X81029Y40267
X81971Y40668
X83802Y39891
X84851Y41648
X86769Y39621
X73914Y10922
X75184Y11684
X77724Y6985
X87249Y6858
X87376Y4064
X75819Y4826
X88334Y48361
X89792Y48305
X73793Y53073
X74966Y53865
X73652Y31562
X73177Y7175
X85481Y20869
X87780Y22433
X86741Y23940
X88123Y35128
X88143Y37671
X88171Y40970
X89799Y45382
X80330Y31354
X79002Y33673
X75898Y54871
X90650Y40780
X88339Y43495
X87014Y47863
X88007Y51369
X86798Y53187
X87612Y45606
X82334Y14265
X88727Y12512
X77602Y41567
X73433Y45887
X75678Y48623
X80391Y4097
X80975Y4072
X80391Y3513
X80315Y22962
X80315Y22174
X80010Y27813
X80975Y3487
X81534Y10109
X88847Y13868
X85024Y26970
X75428Y27244
X80368Y26995
X79080Y23955
X77534Y25286
X87719Y23261
X82177Y43459
X74577Y12558
X88110Y34247
X86418Y20274
X80432Y43645
X87627Y33680
X85742Y20270
X90297Y22949
X85268Y23360
X85942Y21969
X85877Y36645
X78610Y1247
X78791Y32669
X80785Y4874
X81786Y4869
X90373Y42873
X73983Y7894
X72598Y32906
X73972Y8893
X73081Y32235
X89309Y40185
X88351Y41620
X74511Y53104
X88476Y35916
X75253Y53155
X75667Y54176
X89200Y42852
X76004Y53216
X88011Y50673
X86784Y51559
X74699Y51031
X74455Y43569
X84788Y33785
X73873Y51034
X73878Y45301
X73911Y38395
X74521Y45136
X75207Y43528
X84933Y34821
X74859Y33289
X81090Y39299
X75811Y42682
X86827Y26104
X75181Y39271
X78948Y39395
X83795Y33000
X83345Y36843
X77257Y33777
X84087Y42273
X74788Y48786
X83028Y43388
X74783Y48082
X87013Y47158
X103939Y42456
X104592Y42436
X104585Y41735
X103949Y41730
X106368Y8039
X102677Y30584
X103182Y30574
X103180Y30058
X102677Y30069
X97419Y9893
X106939Y13106
X103000Y34399
X101465Y38534
X107437Y39169
X95888Y7681
X107886Y22154
X100472Y55040
X100477Y56546
X101037Y57311
X99808Y57322
X109313Y55040
X109298Y56557
X108737Y57311
X110018Y57311
X102137Y54311
X103237Y54311
X106537Y54311
X107637Y54311
X105437Y49361
X104887Y49911
X104337Y49361
X104887Y48811
X105437Y48261
X105987Y48811
X105987Y49911
X103787Y49911
X103787Y48811
X104337Y48261
X100487Y43861
X99937Y44411
X109287Y43861
X109837Y44411
X101037Y44961
X102137Y46061
X108737Y44961
X107637Y46061
X105437Y54311
X104337Y54311
X109997Y55817
X99818Y55811
X105987Y51561
X105987Y52661
X103787Y51561
X103787Y52661
X105987Y53761
X103787Y53761
X104902Y7798
X108532Y27940
X108140Y7633
X100744Y14585
X96931Y25385
X101140Y23155
X104996Y24016
X105644Y17714
X109601Y16853
X109609Y17531
X108920Y16899
X110289Y16873
X109578Y16165
X100106Y27219
X102161Y37960
X103114Y36228
X101628Y13754
X108014Y13078
X114300Y10485
X112588Y5865
X115138Y5362
X113741Y7902
X111252Y1270
X98552Y1270
X94742Y5080
X94742Y10160
X94742Y15875
X94742Y19685
X97790Y16764
X105042Y16822
X98552Y15748
X98552Y17780
X98679Y56388
X94234Y53848
X111125Y56388
X115189Y53594
X108509Y32032
X108494Y28903
X107950Y25273
X102423Y22139
X97980Y35202
X106845Y36165
X107102Y34369
X108839Y38354
X104397Y40267
X105339Y40668
X107170Y39891
X108219Y41648
X110137Y39621
X97282Y10922
X98552Y11684
X101092Y6985
X110617Y6858
X110744Y4064
X99187Y4826
X111702Y48361
X113160Y48305
X97161Y53073
X98334Y53865
X97020Y31562
X96545Y7175
X108849Y20869
X111148Y22433
X110109Y23940
X111491Y35128
X111511Y37671
X111539Y40970
X113167Y45382
X103698Y31354
X102370Y33673
X99266Y54871
X114018Y40780
X111707Y43495
X110382Y47863
X111375Y51369
X110166Y53187
X110980Y45606
X105702Y14265
X112095Y12512
X100970Y41567
X96801Y45887
X99046Y48623
X103759Y4097
X104343Y4072
X103759Y3513
X103683Y22962
X103683Y22174
X103378Y27813
X104343Y3487
X104902Y10109
X112215Y13868
X108392Y26970
X98796Y27244
X103736Y26995
X102448Y23955
X100901Y25286
X111087Y23261
X105545Y43459
X97945Y12558
X111478Y34247
X109786Y20274
X103800Y43645
X110995Y33680
X109110Y20270
X113665Y22949
X108636Y23360
X109310Y21969
X109245Y36645
X101978Y1247
X102159Y32669
X104153Y4874
X105154Y4869
X113741Y42873
X97351Y7894
X95966Y32906
X97340Y8893
X96449Y32235
X112677Y40185
X111719Y41620
X97879Y53104
X111844Y35916
X98621Y53155
X99035Y54176
X112568Y42852
X99372Y53216
X111379Y50673
X110152Y51559
X98067Y51031
X97823Y43569
X108156Y33785
X97241Y51034
X97246Y45301
X97279Y38395
X97889Y45136
X98575Y43528
X108301Y34821
X98227Y33289
X104457Y39299
X99179Y42682
X110195Y26104
X98549Y39271
X102316Y39395
X107163Y33000
X106713Y36843
X100625Y33777
X107455Y42273
X98156Y48786
X106396Y43388
X98151Y48082
X110381Y47158
X10467Y103924
X11120Y103904
X11113Y103203
X10478Y103198
X12896Y69507
X9205Y92052
X9710Y92042
X9708Y91526
X9205Y91537
X3947Y71361
X13467Y74574
X9528Y95867
X7993Y100002
X13965Y100637
X2416Y69149
X14414Y83622
X7000Y116508
X7005Y118014
X7565Y118779
X6336Y118790
X15841Y116508
X15826Y118025
X15265Y118779
X16546Y118779
X8665Y115779
X9765Y115779
X13065Y115779
X14165Y115779
X11965Y110829
X11415Y111379
X10865Y110829
X11415Y110279
X11965Y109729
X12515Y110279
X12515Y111379
X10315Y111379
X10315Y110279
X10865Y109729
X7015Y105329
X6465Y105879
X15815Y105329
X16365Y105879
X7565Y106429
X8665Y107529
X15265Y106429
X14165Y107529
X11965Y115779
X10865Y115779
X16525Y117285
X6346Y117279
X12515Y113029
X12515Y114129
X10315Y113029
X10315Y114129
X12515Y115229
X10315Y115229
X11430Y69266
X15060Y89408
X14668Y69101
X7272Y76053
X3459Y86853
X7668Y84623
X11524Y85484
X12172Y79182
X16129Y78321
X16137Y78999
X15448Y78367
X16817Y78341
X16106Y77633
X6634Y88687
X8689Y99428
X9642Y97696
X8156Y75222
X14542Y74546
X20828Y71953
X19116Y67333
X21666Y66830
X20269Y69370
X17780Y62738
X5080Y62738
X1270Y66548
X1270Y71628
X1270Y77343
X1270Y81153
X4318Y78232
X11570Y78290
X5080Y77216
X5080Y79248
X5207Y117856
X762Y115316
X17653Y117856
X21717Y115062
X15037Y93500
X15022Y90371
X14478Y86741
X8951Y83607
X4508Y96670
X13373Y97633
X13630Y95837
X15367Y99822
X10925Y101735
X11867Y102136
X13698Y101359
X14747Y103116
X16665Y101089
X3810Y72390
X5080Y73152
X7620Y68453
X17145Y68326
X17272Y65532
X5715Y66294
X18230Y109829
X19688Y109773
X3689Y114541
X4862Y115333
X3548Y93030
X3073Y68644
X15377Y82337
X17676Y83901
X16637Y85408
X18019Y96596
X18039Y99139
X18067Y102438
X19695Y106850
X10226Y92822
X8898Y95141
X5794Y116339
X20546Y102248
X18235Y104963
X16910Y109331
X17903Y112837
X16694Y114655
X17508Y107074
X12230Y75733
X18623Y73980
X7498Y103035
X3329Y107355
X5574Y110091
X10287Y65565
X10871Y65540
X10287Y64981
X10211Y84430
X10211Y83642
X9906Y89281
X10871Y64955
X11430Y71577
X18743Y75336
X14920Y88438
X5324Y88712
X10264Y88463
X8976Y85423
X7429Y86754
X17615Y84729
X12073Y104927
X4473Y74026
X18006Y95715
X16314Y81742
X10328Y105113
X17523Y95148
X15638Y81738
X20193Y84417
X15164Y84828
X15838Y83437
X15773Y98113
X8506Y62715
X8687Y94137
X10681Y66342
X11682Y66337
X20269Y104341
X3879Y69362
X2494Y94374
X3868Y70361
X2977Y93703
X19205Y101653
X18247Y103088
X32319Y22139
X18372Y97384
X5149Y114623
X5563Y115644
X19096Y104320
X5900Y114684
X17907Y112141
X16680Y113027
X4595Y112499
X4351Y105037
X14684Y95253
X3769Y112502
X3774Y106769
X3807Y99863
X4417Y106604
X5103Y104996
X14829Y96289
X4755Y94757
X10985Y100767
X5707Y104150
X16723Y87572
X5077Y100739
X8844Y100863
X13691Y94468
X13241Y98311
X7153Y95245
X13983Y103741
X4684Y110254
X12924Y104856
X4679Y109550
X16909Y108626
X33835Y103924
X34488Y103904
X34481Y103203
X33846Y103198
X36264Y69507
X32573Y92052
X33078Y92042
X33076Y91526
X32573Y91537
X27315Y71361
X36835Y74574
X32896Y95867
X31361Y100002
X37333Y100637
X25784Y69149
X37783Y83622
X30368Y116508
X30373Y118014
X30933Y118779
X29704Y118790
X39209Y116508
X39194Y118025
X38633Y118779
X39914Y118779
X32033Y115779
X33133Y115779
X36433Y115779
X37533Y115779
X35333Y110829
X34783Y111379
X34233Y110829
X34783Y110279
X35333Y109729
X35883Y110279
X35883Y111379
X33683Y111379
X33683Y110279
X34233Y109729
X30383Y105329
X29833Y105879
X39183Y105329
X39733Y105879
X30933Y106429
X32033Y107529
X38633Y106429
X37533Y107529
X35333Y115779
X34233Y115779
X39893Y117285
X29714Y117279
X35883Y113029
X35883Y114129
X33683Y113029
X33683Y114129
X35883Y115229
X33683Y115229
X34798Y69266
X38428Y89408
X38037Y69101
X30640Y76053
X26827Y86853
X31036Y84623
X34892Y85484
X35540Y79182
X39497Y78321
X39505Y78999
X38816Y78367
X40185Y78341
X39474Y77633
X30002Y88687
X32057Y99428
X33010Y97696
X31524Y75222
X37910Y74546
X44196Y71953
X42484Y67333
X45034Y66830
X43637Y69370
X41148Y62738
X28448Y62738
X24638Y66548
X24638Y71628
X24638Y77343
X24638Y81153
X27686Y78232
X34938Y78290
X28448Y77216
X28448Y79248
X28575Y117856
X24130Y115316
X41021Y117856
X45085Y115062
X38405Y93500
X38390Y90371
X37846Y86741
X32319Y83607
X27876Y96670
X36741Y97633
X36998Y95837
X38735Y99822
X34293Y101735
X35235Y102136
X37066Y101359
X38115Y103116
X40033Y101089
X27178Y72390
X28448Y73152
X30988Y68453
X40513Y68326
X40640Y65532
X29083Y66294
X41598Y109829
X43056Y109773
X27057Y114541
X28230Y115333
X26916Y93030
X26441Y68644
X38745Y82337
X41044Y83901
X40005Y85408
X41387Y96596
X41407Y99139
X41435Y102438
X43063Y106850
X33594Y92822
X32266Y95141
X29162Y116339
X43914Y102248
X41603Y104963
X40278Y109331
X41271Y112837
X40062Y114655
X40876Y107074
X35598Y75733
X41991Y73980
X30866Y103035
X26697Y107355
X28942Y110091
X33655Y65565
X34239Y65540
X33655Y64981
X33579Y84430
X33579Y83642
X33274Y89281
X34239Y64955
X34798Y71577
X42111Y75336
X38288Y88438
X28692Y88712
X33632Y88463
X32344Y85423
X30797Y86754
X40983Y84729
X35441Y104927
X27841Y74026
X41374Y95715
X39682Y81742
X33696Y105113
X40891Y95148
X39006Y81738
X43561Y84417
X38532Y84828
X39206Y83437
X39141Y98113
X31874Y62715
X32055Y94137
X34049Y66342
X35050Y66337
X43637Y104341
X27247Y69362
X25862Y94374
X27236Y70361
X26345Y93703
X42573Y101653
X41615Y103088
X27775Y114572
X41740Y97384
X28517Y114623
X28931Y115644
X42464Y104320
X29268Y114684
X41275Y112141
X40048Y113027
X27963Y112499
X27719Y105037
X38052Y95253
X27137Y112502
X27142Y106769
X27175Y99863
X27785Y106604
X28471Y104996
X38197Y96289
X28123Y94757
X34354Y100767
X29075Y104150
X40091Y87572
X28445Y100739
X32212Y100863
X37059Y94468
X36609Y98311
X30521Y95245
X37351Y103741
X28052Y110254
X36292Y104856
X28047Y109550
X40277Y108626
X57203Y103924
X57856Y103904
X57849Y103203
X57213Y103198
X59632Y69507
X55941Y92052
X56446Y92042
X56444Y91526
X55941Y91537
X50683Y71361
X60203Y74574
X56264Y95867
X54729Y100002
X60701Y100637
X49152Y69149
X61150Y83622
X53736Y116508
X53741Y118014
X54301Y118779
X53072Y118790
X62577Y116508
X62562Y118025
X62001Y118779
X63282Y118779
X55401Y115779
X56501Y115779
X59801Y115779
X60901Y115779
X58701Y110829
X58151Y111379
X57601Y110829
X58151Y110279
X58701Y109729
X59251Y110279
X59251Y111379
X57051Y111379
X57051Y110279
X57601Y109729
X53751Y105329
X53201Y105879
X62551Y105329
X63101Y105879
X54301Y106429
X55401Y107529
X62001Y106429
X60901Y107529
X58701Y115779
X57601Y115779
X63261Y117285
X53082Y117279
X59251Y113029
X59251Y114129
X57051Y113029
X57051Y114129
X59251Y115229
X57051Y115229
X58166Y69266
X61796Y89408
X61404Y69101
X54008Y76053
X50195Y86853
X54404Y84623
X58260Y85484
X58908Y79182
X62865Y78321
X62873Y78999
X62184Y78367
X63553Y78341
X62842Y77633
X53370Y88687
X55425Y99428
X56378Y97696
X54892Y75222
X61278Y74546
X67564Y71953
X65852Y67333
X68402Y66830
X67005Y69370
X64516Y62738
X51816Y62738
X48006Y66548
X48006Y71628
X48006Y77343
X48006Y81153
X51054Y78232
X58306Y78290
X51816Y77216
X51816Y79248
X51943Y117856
X47498Y115316
X64389Y117856
X68453Y115062
X61773Y93500
X61758Y90371
X61214Y86741
X55687Y83607
X51244Y96670
X60109Y97633
X60366Y95837
X62103Y99822
X57661Y101735
X58603Y102136
X60434Y101359
X61483Y103116
X63401Y101089
X50546Y72390
X51816Y73152
X54356Y68453
X63881Y68326
X64008Y65532
X52451Y66294
X64966Y109829
X66424Y109773
X50425Y114541
X51598Y115333
X50284Y93030
X49809Y68644
X62113Y82337
X64412Y83901
X63373Y85408
X64755Y96596
X64775Y99139
X64803Y102438
X66431Y106850
X56962Y92822
X55634Y95141
X52530Y116339
X67282Y102248
X64971Y104963
X63646Y109331
X64639Y112837
X63430Y114655
X64244Y107074
X58966Y75733
X65359Y73980
X54234Y103035
X50065Y107355
X52310Y110091
X57023Y65565
X57607Y65540
X57023Y64981
X56947Y84430
X56947Y83642
X56642Y89281
X57607Y64955
X58166Y71577
X65479Y75336
X61656Y88438
X52060Y88712
X57000Y88463
X55712Y85423
X54165Y86754
X64351Y84729
X58809Y104927
X51209Y74026
X64742Y95715
X63050Y81742
X57064Y105113
X64259Y95148
X62374Y81738
X66929Y84417
X61900Y84828
X62574Y83437
X62509Y98113
X55242Y62715
X55423Y94137
X57417Y66342
X58418Y66337
X67005Y104341
X50615Y69362
X49230Y94374
X50604Y70361
X49713Y93703
X65941Y101653
X64983Y103088
X51143Y114572
X65108Y97384
X51885Y114623
X52299Y115644
X65832Y104320
X52636Y114684
X64643Y112141
X63416Y113027
X51331Y112499
X51087Y105037
X61420Y95253
X50505Y112502
X50510Y106769
X50543Y99863
X51153Y106604
X51839Y104996
X61565Y96289
X51491Y94757
X57721Y100767
X52443Y104150
X63459Y87572
X51813Y100739
X55580Y100863
X60427Y94468
X59977Y98311
X53889Y95245
X60719Y103741
X51420Y110254
X59660Y104856
X51415Y109550
X63645Y108626
X80571Y103924
X81224Y103904
X81217Y103203
X80582Y103198
X83000Y69507
X79309Y92052
X79814Y92042
X79812Y91526
X79309Y91537
X74051Y71361
X83571Y74574
X79632Y95867
X78097Y100002
X84069Y100637
X72520Y69149
X84519Y83622
X77104Y116508
X77109Y118014
X77669Y118779
X76440Y118790
X85945Y116508
X85930Y118025
X85369Y118779
X86650Y118779
X78769Y115779
X79869Y115779
X83169Y115779
X84269Y115779
X82069Y110829
X81519Y111379
X80969Y110829
X81519Y110279
X82069Y109729
X82619Y110279
X82619Y111379
X80419Y111379
X80419Y110279
X80969Y109729
X77119Y105329
X76569Y105879
X85919Y105329
X86469Y105879
X77669Y106429
X78769Y107529
X85369Y106429
X84269Y107529
X82069Y115779
X80969Y115779
X86629Y117285
X76450Y117279
X82619Y113029
X82619Y114129
X80419Y113029
X80419Y114129
X82619Y115229
X80419Y115229
X81534Y69266
X85164Y89408
X84773Y69101
X77376Y76053
X73563Y86853
X77772Y84623
X81628Y85484
X82276Y79182
X86233Y78321
X86241Y78999
X85552Y78367
X86921Y78341
X86210Y77633
X76738Y88687
X78793Y99428
X79746Y97696
X78260Y75222
X84646Y74546
X90932Y71953
X89220Y67333
X91770Y66830
X90373Y69370
X87884Y62738
X75184Y62738
X71374Y66548
X71374Y71628
X71374Y77343
X71374Y81153
X74422Y78232
X81674Y78290
X75184Y77216
X75184Y79248
X75311Y117856
X70866Y115316
X87757Y117856
X91821Y115062
X85141Y93500
X85126Y90371
X84582Y86741
X79055Y83607
X74612Y96670
X83477Y97633
X83734Y95837
X85471Y99822
X81029Y101735
X81971Y102136
X83802Y101359
X84851Y103116
X86769Y101089
X73914Y72390
X75184Y73152
X77724Y68453
X87249Y68326
X87376Y65532
X75819Y66294
X88334Y109829
X89792Y109773
X73793Y114541
X74966Y115333
X73652Y93030
X73177Y68644
X85481Y82337
X87780Y83901
X86741Y85408
X88123Y96596
X88143Y99139
X88171Y102438
X89799Y106850
X80330Y92822
X79002Y95141
X75898Y116339
X90650Y102248
X88339Y104963
X87014Y109331
X88007Y112837
X86798Y114655
X87612Y107074
X82334Y75733
X88727Y73980
X77602Y103035
X73433Y107355
X75678Y110091
X80391Y65565
X80975Y65540
X80391Y64981
X80315Y84430
X80315Y83642
X80010Y89281
X80975Y64955
X81534Y71577
X88847Y75336
X85024Y88438
X75428Y88712
X80368Y88463
X79080Y85423
X77534Y86754
X87719Y84729
X82177Y104927
X74577Y74026
X88110Y95715
X86418Y81742
X80432Y105113
X87627Y95148
X10467Y42456
X90297Y84417
X85268Y84828
X85942Y83437
X85877Y98113
X78610Y62715
X78791Y94137
X80785Y66342
X81786Y66337
X90373Y104341
X73983Y69362
X72598Y94374
X73972Y70361
X73081Y93703
X89309Y101653
X88351Y103088
X74511Y114572
X88476Y97384
X75253Y114623
X75667Y115644
X89200Y104320
X76004Y114684
X88011Y112141
X86784Y113027
X74699Y112499
X74455Y105037
X84788Y95253
X73873Y112502
X73878Y106769
X73911Y99863
X74521Y106604
X75207Y104996
X84933Y96289
X74859Y94757
X81090Y100767
X75811Y104150
X86827Y87572
X75181Y100739
X78948Y100863
X83795Y94468
X83345Y98311
X77257Y95245
X84087Y103741
X74788Y110254
X83028Y104856
X74783Y109550
X87013Y108626
X103939Y103924
X104592Y103904
X104585Y103203
X103949Y103198
X106368Y69507
X102677Y92052
X103182Y92042
X103180Y91526
X102677Y91537
X97419Y71361
X106939Y74574
X103000Y95867
X101465Y100002
X107437Y100637
X95888Y69149
X107886Y83622
X100472Y116508
X100477Y118014
X101037Y118779
X99808Y118790
X109313Y116508
X109298Y118025
X108737Y118779
X110018Y118779
X102137Y115779
X103237Y115779
X106537Y115779
X107637Y115779
X105437Y110829
X104887Y111379
X104337Y110829
X104887Y110279
X105437Y109729
X105987Y110279
X105987Y111379
X103787Y111379
X103787Y110279
X104337Y109729
X100487Y105329
X99937Y105879
X109287Y105329
X109837Y105879
X101037Y106429
X102137Y107529
X108737Y106429
X107637Y107529
X105437Y115779
X104337Y115779
X109997Y117285
X99818Y117279
X105987Y113029
X105987Y114129
X103787Y113029
X103787Y114129
X105987Y115229
X103787Y115229
X104902Y69266
X108532Y89408
X108140Y69101
X100744Y76053
X96931Y86853
X101140Y84623
X104996Y85484
X105644Y79182
X109601Y78321
X109609Y78999
X108920Y78367
X110289Y78341
X109578Y77633
X100106Y88687
X102161Y99428
X103114Y97696
X101628Y75222
X108014Y74546
X114300Y71953
X112588Y67333
X115138Y66830
X113741Y69370
X111252Y62738
X98552Y62738
X94742Y66548
X94742Y71628
X94742Y77343
X94742Y81153
X97790Y78232
X105042Y78290
X98552Y77216
X98552Y79248
X98679Y117856
X94234Y115316
X111125Y117856
X115189Y115062
X108509Y93500
X108494Y90371
X107950Y86741
X102423Y83607
X97980Y96670
X106845Y97633
X107102Y95837
X108839Y99822
X104397Y101735
X105339Y102136
X107170Y101359
X108219Y103116
X110137Y101089
X97282Y72390
X98552Y73152
X101092Y68453
X110617Y68326
X110744Y65532
X99187Y66294
X111702Y109829
X113160Y109773
X97161Y114541
X98334Y115333
X97020Y93030
X96545Y68644
X108849Y82337
X111148Y83901
X110109Y85408
X111491Y96596
X111511Y99139
X111539Y102438
X113167Y106850
X103698Y92822
X102370Y95141
X99266Y116339
X114018Y102248
X111707Y104963
X110382Y109331
X111375Y112837
X110166Y114655
X110980Y107074
X105702Y75733
X112095Y73980
X100970Y103035
X96801Y107355
X99046Y110091
X103759Y65565
X104343Y65540
X103759Y64981
X103683Y84430
X103683Y83642
X103378Y89281
X104343Y64955
X104902Y71577
X112215Y75336
X108392Y88438
X98796Y88712
X103736Y88463
X102448Y85423
X100901Y86754
X111087Y84729
X105545Y104927
X97945Y74026
X111478Y95715
X109786Y81742
X103800Y105113
X110995Y95148
X109110Y81738
X113665Y84417
X108636Y84828
X109310Y83437
X109245Y98113
X101978Y62715
X102159Y94137
X104153Y66342
X105154Y66337
X113741Y104341
X97351Y69362
X95966Y94374
X97340Y70361
X96449Y93703
X112677Y101653
X111719Y103088
X97879Y114572
X111844Y97384
X98621Y114623
X99035Y115644
X112568Y104320
X99372Y114684
X111379Y112141
X110152Y113027
X98067Y112499
X97823Y105037
X108156Y95253
X97241Y112502
X97246Y106769
X97279Y99863
X97889Y106604
X98575Y104996
X108301Y96289
X98227Y94757
X104457Y100767
X99179Y104150
X110195Y87572
X98549Y100739
X102316Y100863
X107163Y94468
X106713Y98311
X100625Y95245
X107455Y103741
X98156Y110254
X106396Y104856
X98151Y109550
X110381Y108626
X11120Y42436
X11113Y41735
X10478Y41730
X12896Y8039
X9205Y30584
X9710Y30574
X9708Y30058
X9205Y30069
X3947Y9893
X13467Y13106
X9528Y34399
X7993Y38534
X13965Y39169
X2416Y7681
X14414Y22154
X7000Y55040
X7005Y56546
X7565Y57311
X6336Y57322
X15841Y55040
X15826Y56557
X15265Y57311
X16546Y57311
X8665Y54311
X9765Y54311
X13065Y54311
X14165Y54311
X11965Y49361
X11415Y49911
X10865Y49361
X11415Y48811
X11965Y48261
X12515Y48811
X12515Y49911
X10315Y49911
X10315Y48811
X10865Y48261
X7015Y43861
X6465Y44411
X15815Y43861
X16365Y44411
X7565Y44961
X8665Y46061
X15265Y44961
X14165Y46061
X11965Y54311
X10865Y54311
X16525Y55817
X4407Y114572
X6346Y55811
X12515Y51561
X12515Y52661
X10315Y51561
X10315Y52661
X12515Y53761
X10315Y53761
X11430Y7798
X15060Y27940
X14668Y7633
X7272Y14585
X3459Y25385
X7668Y23155
X11524Y24016
X12172Y17714
X16129Y16853
X16137Y17531
X15448Y16899
X16817Y16873
X16106Y16165
X6634Y27219
X8689Y37960
X9642Y36228
X8156Y13754
X14542Y13078
X20828Y10485
X19116Y5865
X21666Y5362
X20269Y7902
X17780Y1270
X5080Y1270
X1270Y5080
X1270Y10160
X1270Y15875
X1270Y19685
X4318Y16764
X11570Y16822
X5080Y15748
X5080Y17780
X5207Y56388
X762Y53848
X17653Y56388
X21717Y53594
X15037Y32032
X15022Y28903
X14478Y25273
X8951Y22139
X4508Y35202
X13373Y36165
X13630Y34369
X15367Y38354
X10925Y40267
X11867Y40668
X13698Y39891
X14747Y41648
X16665Y39621
X3810Y10922
X5080Y11684
X7620Y6985
X17145Y6858
X17272Y4064
X5715Y4826
X18230Y48361
X19688Y48305
X3689Y53073
X4862Y53865
X3548Y31562
X3073Y7175
X15377Y20869
X17676Y22433
X16637Y23940
X18019Y35128
X18039Y37671
X18067Y40970
X19695Y45382
X10226Y31354
X8898Y33673
X5794Y54871
X20546Y40780
X18235Y43495
X16910Y47863
X17903Y51369
X16694Y53187
X17508Y45606
X12230Y14265
X18623Y12512
X7498Y41567
X3329Y45887
X5574Y48623
X10287Y4097
X10871Y4072
X10287Y3513
X10211Y22962
X10211Y22174
X9906Y27813
X10871Y3487
X11430Y10109
X18743Y13868
X14920Y26970
X5324Y27244
X10264Y26995
X8976Y23955
X7429Y25286
X17615Y23261
X12073Y43459
X4473Y12558
X18006Y34247
X16314Y20274
X10328Y43645
X17523Y33680
X15638Y20270
X20193Y22949
X15164Y23360
X15838Y21969
X15773Y36645
X8506Y1247
X8687Y32669
X10681Y4874
X11682Y4869
X20269Y42873
X3879Y7894
X2494Y32906
X3868Y8893
X2977Y32235
X19205Y40185
X18247Y41620
X4407Y53104
X18372Y35916
X5149Y53155
X5563Y54176
X19096Y42852
X5900Y53216
X17907Y50673
X16680Y51559
X4595Y51031
X4351Y43569
X14684Y33785
X3769Y51034
X3774Y45301
X3807Y38395
X4417Y45136
X5103Y43528
X14829Y34821
X4755Y33289
X10985Y39299
X5707Y42682
X16723Y26104
X5077Y39271
X8844Y39395
X13691Y33000
X13241Y36843
X7153Y33777
X13983Y42273
X4684Y48786
X12924Y43388
X4679Y48082
X16909Y47158
X33835Y42456
X34488Y42436
X34481Y41735
X33846Y41730
X36264Y8039
X32573Y30584
X33078Y30574
X33076Y30058
X32573Y30069
X27315Y9893
X36835Y13106
X32896Y34399
X31361Y38534
X37333Y39169
X25784Y7681
X37783Y22154
X30368Y55040
X30373Y56546
X30933Y57311
X29704Y57322
X39209Y55040
X39194Y56557
X38633Y57311
X39914Y57311
X32033Y54311
X33133Y54311
X36433Y54311
X37533Y54311
X35333Y49361
X34783Y49911
X34233Y49361
X34783Y48811
X35333Y48261
X35883Y48811
X35883Y49911
X33683Y49911
X33683Y48811
X34233Y48261
X30383Y43861
X29833Y44411
X39183Y43861
X39733Y44411
X30933Y44961
X32033Y46061
X38633Y44961
X37533Y46061
X35333Y54311
X34233Y54311
X39893Y55817
X29714Y55811
X35883Y51561
X35883Y52661
X33683Y51561
X33683Y52661
X35883Y53761
X33683Y53761
X34798Y7798
X38428Y27940
X38037Y7633
X30640Y14585
X26827Y25385
X31036Y23155
X34892Y24016
X35540Y17714
X39497Y16853
X39505Y17531
X38816Y16899
X40185Y16873
X39474Y16165
X30002Y27219
X32057Y37960
X33010Y36228
X31524Y13754
X37910Y13078
X44196Y10485
X42484Y5865
X45034Y5362
X43637Y7902
X41148Y1270
X28448Y1270
X24638Y5080
X24638Y10160
X24638Y15875
X24638Y19685
X27686Y16764
X34938Y16822
X28448Y15748
X28448Y17780
X28575Y56388
X24130Y53848
X41021Y56388
X45085Y53594
X38405Y32032
X38390Y28903
X37846Y25273
X27876Y35202
X36741Y36165
X36998Y34369
X38735Y38354
X34293Y40267
X35235Y40668
X37066Y39891
X38115Y41648
X40033Y39621
X27178Y10922
X28448Y11684
X30988Y6985
X40513Y6858
X40640Y4064
X29083Y4826
X41598Y48361
X43056Y48305
X27057Y53073
X28230Y53865
X26916Y31562
X26441Y7175
X38745Y20869
X41044Y22433
X40005Y23940
X41387Y35128
X41407Y37671
X41435Y40970
X43063Y45382
X33594Y31354
X32266Y33673
X29162Y54871
X43914Y40780
X41603Y43495
X40278Y47863
X41271Y51369
X40062Y53187
X40876Y45606
X35598Y14265
X41991Y12512
X30866Y41567
X26697Y45887
X28942Y48623
X33655Y4097
X34239Y4072
X33655Y3513
X33579Y22962
X33579Y22174
X33274Y27813
X85742Y81738
M30