M48
;GenerationSoftware,Autodesk,EAGLE,9.6.2*%
;CreationDate,2023-04-04T18:07:11Z*%
FMAT,2
ICI,OFF
METRIC,TZ,000.000
T4C0.200
T3C0.650
T2C1.016
T1C3.302
%
G90
M71
T1
X43688Y55880
X25908Y55880
X49276Y55880
X67056Y55880
X2540Y2540
X20320Y2540
X2540Y55880
X20320Y55880
X49276Y2540
X67056Y2540
X25908Y2540
X43688Y2540
T2
X51841Y23012
X48006Y41910
X48006Y44450
X48006Y46990
X48006Y49530
X21590Y34290
X48006Y52070
X21590Y52070
X21590Y49530
X21590Y46990
X21590Y44450
X21590Y41910
X21590Y39370
X21590Y36830
X54381Y23012
X21590Y31750
X21590Y29210
X21590Y26670
X21590Y24130
X21590Y21590
X21590Y19050
X21590Y16510
X21590Y13970
X1270Y24130
X1270Y26670
X1270Y29210
X1270Y31750
X1270Y34290
X1270Y36830
X1270Y39370
X1270Y41910
X1270Y44450
X1270Y46990
X1270Y49530
X1270Y52070
X7645Y23012
X5105Y23012
X44958Y52070
X44958Y49530
X44958Y46990
X44958Y44450
X44958Y41910
X44958Y39370
X44958Y36830
X44958Y34290
X44958Y31750
X44958Y29210
X44958Y26670
X44958Y24130
X44958Y21590
X44958Y19050
X44958Y16510
X44958Y13970
X24638Y24130
X24638Y26670
X24638Y29210
X24638Y31750
X24638Y34290
X24638Y36830
X24638Y39370
X24638Y41910
X24638Y44450
X24638Y46990
X24638Y49530
X24638Y52070
X31013Y23012
X28473Y23012
X68326Y52070
X68326Y49530
X68326Y46990
X68326Y44450
X68326Y41910
X68326Y39370
X68326Y36830
X68326Y34290
X68326Y31750
X68326Y29210
X68326Y26670
X68326Y24130
X68326Y21590
X68326Y19050
X68326Y16510
X68326Y13970
X48006Y24130
X48006Y26670
X48006Y29210
X48006Y31750
X48006Y34290
X48006Y36830
X48006Y39370
T3
X8540Y4651
X14320Y4651
X31908Y4651
X37688Y4651
X61056Y4651
X55276Y4651
T4
X16502Y23927
X17810Y40973
X19695Y45382
X10226Y31354
X8885Y33353
X5395Y55435
X20546Y40780
X19360Y44028
X17903Y51369
X16694Y53187
X17508Y45606
X12230Y14265
X18623Y12512
X7196Y38636
X7224Y41618
X4994Y40239
X5662Y51572
X564Y35573
X551Y38118
X22306Y33038
X22286Y25405
X18283Y15014
X4105Y25784
X6157Y32055
X16472Y41283
X15215Y41364
X13975Y39977
X5001Y38997
X4717Y36906
X21039Y25418
X19629Y42934
X17930Y31816
X3607Y31039
X1831Y30480
X6327Y48720
X3442Y16655
X4188Y20912
X7346Y20719
X12537Y4102
X13122Y4077
X12537Y3518
X10211Y22962
X10211Y22421
X11430Y10109
X18743Y13868
X9578Y28882
X10130Y28882
X13109Y3526
X17163Y3414
X14920Y26970
X4851Y27460
X10264Y26995
X8976Y23955
X7427Y25364
X17455Y23251
X4473Y12558
X17470Y33668
X16314Y20274
X15931Y39563
X16881Y33355
X15638Y20270
X15944Y38793
X20193Y22949
X15164Y23360
X15838Y21969
X15801Y36236
X8519Y935
X8687Y32669
X10681Y4874
X11682Y4869
X20269Y42873
X14414Y24216
X3879Y7894
X2543Y30475
X14181Y48257
X2652Y51539
X3868Y8893
X3086Y29914
X15291Y47153
X19205Y40185
X6721Y40361
X18410Y36812
X6198Y39342
X5232Y40945
X18636Y41913
X5715Y40015
X8669Y48252
X16863Y51539
X15834Y40955
X16543Y43564
X16855Y48092
X3343Y42421
X7578Y47159
X4237Y37391
X4755Y33289
X7597Y46078
X4336Y38933
X3414Y36335
X13691Y33000
X13241Y36843
X7153Y33777
X17474Y35535
X15928Y40295
X8672Y49352
X12443Y8037
X4747Y13609
X13670Y13068
X20919Y8593
X20554Y14907
X13221Y39375
X33289Y42464
X33942Y42443
X33934Y41742
X33299Y41737
X32573Y30584
X33078Y30574
X33076Y30058
X32573Y30069
X27315Y9893
X32896Y34399
X25784Y7681
X37783Y22154
X35032Y20028
X35055Y19568
X31742Y19990
X31186Y19995
X31184Y29093
X31694Y29083
X44176Y7478
X34770Y38898
X30368Y55040
X30373Y56546
X30933Y57311
X29704Y57322
X39209Y55040
X39194Y56557
X38633Y57311
X39914Y57311
X32033Y54311
X33133Y54311
X36433Y54311
X37533Y54311
X35333Y49361
X34783Y49911
X34233Y49361
X34783Y48811
X35333Y48261
X35883Y48811
X35883Y49911
X33683Y49911
X33683Y48811
X34233Y48261
X30383Y43861
X29833Y44411
X39183Y43861
X39733Y44411
X30933Y44961
X32033Y46061
X38633Y44961
X37533Y46061
X35333Y54311
X34233Y54311
X39893Y55817
X29714Y55811
X35883Y51561
X35883Y52661
X33683Y51561
X33683Y52661
X35883Y53761
X33683Y53761
X34798Y7798
X38428Y27940
X38037Y7633
X30168Y14453
X27455Y25207
X34892Y24016
X35540Y17714
X39497Y16853
X39505Y17531
X38816Y16899
X40185Y16873
X39474Y16165
X30008Y27150
X33010Y36228
X31524Y13754
X37910Y13078
X44069Y12136
X41148Y559
X28501Y574
X23912Y5184
X23912Y10147
X23904Y15641
X23904Y19942
X34938Y16822
X29327Y15753
X31712Y17833
X28575Y56388
X24130Y53848
X41021Y56388
X45085Y53594
X38405Y32032
X38390Y28903
X37899Y25184
X32319Y22139
X27876Y35202
X36632Y36147
X36998Y34369
X39218Y38057
X27178Y10922
X28448Y11684
X30988Y6985
X29083Y4826
X26617Y53512
X27918Y54348
X29063Y29334
X26441Y7175
X38745Y20869
X41044Y22433
X39870Y23927
X41178Y40973
X43063Y45382
X33594Y31354
X32253Y33353
X28763Y55435
X43914Y40780
X42728Y44028
X41271Y51369
X40062Y53187
X40876Y45606
X35598Y14265
X41991Y12512
X30564Y38636
X30592Y41618
X28362Y40239
X29030Y51572
X23932Y35573
X23919Y38118
X45674Y33038
X45654Y25405
X41651Y15014
X27473Y25784
X29525Y32055
X39840Y41283
X38583Y41364
X37343Y39977
X28369Y38997
X28085Y36906
X44407Y25418
X42997Y42934
X41298Y31816
X26975Y31039
X25199Y30480
X29695Y48720
X26810Y16655
X27556Y20912
X30714Y20719
X35905Y4102
X36490Y4077
X35905Y3518
X33579Y22962
X33579Y22421
X34798Y10109
X42111Y13868
X32946Y28882
X33498Y28882
X36477Y3526
X40531Y3414
X38288Y26970
X28219Y27460
X33632Y26995
X32344Y23955
X30795Y25364
X40823Y23251
X13264Y36147
X40838Y33668
X39682Y20274
X39299Y39563
X40249Y33355
X39006Y20270
X39312Y38793
X43561Y22949
X38532Y23360
X39206Y21969
X39169Y36236
X31887Y935
X32055Y32669
X34049Y4874
X35050Y4869
X43637Y42873
X37783Y24216
X27247Y7894
X25911Y30475
X37549Y48257
X26020Y51539
X27236Y8893
X26454Y29914
X38659Y47153
X42573Y40185
X30089Y40361
X41778Y36812
X29566Y39342
X28600Y40945
X42004Y41913
X29083Y40015
X32037Y48252
X40231Y51539
X39202Y40955
X39911Y43564
X40223Y48092
X26711Y42421
X30946Y47159
X27605Y37391
X28123Y33289
X30965Y46078
X27704Y38933
X26782Y36335
X37059Y33000
X36609Y36843
X30521Y33777
X40842Y35535
X39296Y40295
X32040Y49352
X35811Y8037
X28115Y13609
X37038Y13068
X44287Y8593
X43922Y14907
X36589Y39375
X56657Y42464
X57310Y42443
X57302Y41742
X56667Y41737
X55941Y30584
X56446Y30574
X56444Y30058
X55941Y30069
X50683Y9893
X56264Y34399
X49152Y7681
X61150Y22154
X58400Y20028
X58423Y19568
X55110Y19990
X54554Y19995
X54552Y29093
X55062Y29083
X67544Y7478
X58138Y38898
X53736Y55040
X53741Y56546
X54301Y57311
X53072Y57322
X62577Y55040
X62562Y56557
X62001Y57311
X63282Y57311
X55401Y54311
X56501Y54311
X59801Y54311
X60901Y54311
X58701Y49361
X58151Y49911
X57601Y49361
X58151Y48811
X58701Y48261
X59251Y48811
X59251Y49911
X57051Y49911
X57051Y48811
X57601Y48261
X53751Y43861
X53201Y44411
X62551Y43861
X63101Y44411
X54301Y44961
X55401Y46061
X62001Y44961
X60901Y46061
X58701Y54311
X57601Y54311
X63261Y55817
X53082Y55811
X59251Y51561
X59251Y52661
X57051Y51561
X57051Y52661
X59251Y53761
X57051Y53761
X58166Y7798
X61796Y27940
X61404Y7633
X53536Y14453
X50823Y25207
X58260Y24016
X58908Y17714
X62865Y16853
X62873Y17531
X62184Y16899
X63553Y16873
X62842Y16165
X53376Y27150
X56378Y36228
X54892Y13754
X61278Y13078
X67437Y12136
X64516Y559
X51869Y574
X47280Y5184
X47280Y10147
X47272Y15641
X47272Y19942
X58306Y16822
X52695Y15753
X55080Y17833
X51943Y56388
X47498Y53848
X64389Y56388
X68453Y53594
X61773Y32032
X61758Y28903
X61267Y25184
X55687Y22139
X51244Y35202
X60000Y36147
X60366Y34369
X62586Y38057
X50546Y10922
X51816Y11684
X54356Y6985
X52451Y4826
X49985Y53512
X51286Y54348
X52431Y29334
X49809Y7175
X62113Y20869
X64412Y22433
X63238Y23927
X64546Y40973
X66431Y45382
X56962Y31354
X55621Y33353
X52131Y55435
X67282Y40780
X66096Y44028
X64639Y51369
X63430Y53187
X64244Y45606
X58966Y14265
X65359Y12512
X53932Y38636
X53960Y41618
X51730Y40239
X52398Y51572
X47300Y35573
X47287Y38118
X69042Y33038
X69022Y25405
X65019Y15014
X50841Y25784
X52893Y32055
X63208Y41283
X61951Y41364
X60711Y39977
X9921Y42464
X51453Y36906
X67775Y25418
X66365Y42934
X64666Y31816
X50343Y31039
X48567Y30480
X53063Y48720
X50178Y16655
X50924Y20912
X54082Y20719
X59273Y4102
X59858Y4077
X59273Y3518
X56947Y22962
X56947Y22421
X58166Y10109
X65479Y13868
X56314Y28882
X56866Y28882
X59845Y3526
X63899Y3414
X61656Y26970
X51587Y27460
X57000Y26995
X55712Y23955
X54163Y25364
X64191Y23251
X51209Y12558
X64206Y33668
X63050Y20274
X62667Y39563
X63617Y33355
X62374Y20270
X62680Y38793
X66929Y22949
X61900Y23360
X62574Y21969
X62537Y36236
X55255Y935
X55423Y32669
X57417Y4874
X58418Y4869
X67005Y42873
X61150Y24216
X50615Y7894
X49279Y30475
X60917Y48257
X49388Y51539
X50604Y8893
X49822Y29914
X62027Y47153
X65941Y40185
X53457Y40361
X65146Y36812
X52934Y39342
X51968Y40945
X65372Y41913
X52451Y40015
X55405Y48252
X63599Y51539
X62570Y40955
X63279Y43564
X63591Y48092
X50079Y42421
X54314Y47159
X50973Y37391
X51491Y33289
X54333Y46078
X51072Y38933
X50150Y36335
X60427Y33000
X59977Y36843
X53889Y33777
X64210Y35535
X62664Y40295
X55408Y49352
X59179Y8037
X51483Y13609
X60406Y13068
X67655Y8593
X67290Y14907
X59957Y39375
X10574Y42443
X10566Y41742
X9931Y41737
X9205Y30584
X9710Y30574
X9708Y30058
X9205Y30069
X3947Y9893
X9528Y34399
X2416Y7681
X14414Y22154
X11664Y20028
X27841Y12558
X11687Y19568
X8374Y19990
X7818Y19995
X7816Y29093
X8326Y29083
X20808Y7478
X11402Y38898
X7000Y55040
X7005Y56546
X7565Y57311
X6336Y57322
X15841Y55040
X15826Y56557
X15265Y57311
X16546Y57311
X8665Y54311
X9765Y54311
X13065Y54311
X14165Y54311
X11965Y49361
X11415Y49911
X10865Y49361
X11415Y48811
X11965Y48261
X12515Y48811
X12515Y49911
X10315Y49911
X10315Y48811
X10865Y48261
X7015Y43861
X6465Y44411
X15815Y43861
X16365Y44411
X7565Y44961
X8665Y46061
X15265Y44961
X14165Y46061
X11965Y54311
X10865Y54311
X16525Y55817
X6346Y55811
X12515Y51561
X12515Y52661
X10315Y51561
X10315Y52661
X12515Y53761
X10315Y53761
X11430Y7798
X15060Y27940
X14668Y7633
X6800Y14453
X4087Y25207
X11524Y24016
X12172Y17714
X16129Y16853
X16137Y17531
X15448Y16899
X16817Y16873
X16106Y16165
X6640Y27150
X9642Y36228
X8156Y13754
X14542Y13078
X20701Y12136
X17780Y559
X5133Y574
X544Y5184
X544Y10147
X536Y15641
X536Y19942
X11570Y16822
X5959Y15753
X8344Y17833
X5207Y56388
X762Y53848
X17653Y56388
X21717Y53594
X15037Y32032
X15022Y28903
X14531Y25184
X8951Y22139
X4508Y35202
X13630Y34369
X15850Y38057
X3810Y10922
X5080Y11684
X7620Y6985
X5715Y4826
X3249Y53512
X4550Y54348
X5695Y29334
X3073Y7175
X15377Y20869
X17676Y22433
X51737Y38997
M30