M48
;GenerationSoftware,Autodesk,EAGLE,9.6.2*%
;CreationDate,2023-05-15T20:38:54Z*%
FMAT,2
ICI,OFF
METRIC,TZ,000.000
T4C0.200
T3C0.650
T2C1.016
T1C3.302
%
G90
M71
T1
X20320Y178816
X49276Y117348
X90424Y117348
X67056Y125476
X2540Y2540
X20320Y2540
X2540Y55880
X20320Y55880
X49276Y178816
X2540Y125476
X25908Y2540
X43688Y2540
X25908Y55880
X43688Y55880
X20320Y125476
X2540Y178816
X49276Y2540
X67056Y2540
X49276Y55880
X67056Y55880
X67056Y178816
X72644Y178816
X72644Y2540
X90424Y2540
X72644Y55880
X90424Y55880
X90424Y178816
X25908Y125476
X2540Y64008
X20320Y64008
X2540Y117348
X20320Y117348
X43688Y125476
X25908Y178816
X25908Y64008
X43688Y64008
X25908Y117348
X43688Y117348
X43688Y178816
X72644Y125476
X49276Y64008
X67056Y64008
X67056Y117348
X90424Y125476
X49276Y125476
X72644Y64008
X90424Y64008
X72644Y117348
T2
X91694Y162306
X91694Y159766
X91694Y157226
X91694Y154686
X91694Y152146
X91694Y149606
X91694Y147066
X91694Y144526
X91694Y141986
X91694Y139446
X91694Y136906
X71374Y147066
X71374Y149606
X71374Y152146
X71374Y154686
X71374Y157226
X71374Y159766
X71374Y162306
X75209Y145948
X71374Y164846
X71374Y167386
X71374Y169926
X71374Y172466
X71374Y175006
X77749Y145948
X21590Y52070
X21590Y49530
X21590Y46990
X21590Y44450
X21590Y41910
X21590Y39370
X21590Y36830
X21590Y34290
X21590Y31750
X21590Y29210
X21590Y26670
X21590Y24130
X21590Y21590
X21590Y19050
X21590Y16510
X21590Y13970
X1270Y24130
X1270Y26670
X1270Y29210
X1270Y31750
X1270Y34290
X1270Y36830
X1270Y39370
X1270Y41910
X1270Y44450
X1270Y46990
X1270Y49530
X1270Y52070
X7645Y23012
X5105Y23012
X44958Y52070
X44958Y49530
X44958Y46990
X44958Y44450
X44958Y41910
X44958Y39370
X44958Y36830
X44958Y34290
X44958Y31750
X44958Y29210
X44958Y26670
X44958Y24130
X44958Y21590
X44958Y19050
X44958Y16510
X44958Y13970
X24638Y24130
X24638Y26670
X24638Y29210
X24638Y31750
X24638Y34290
X24638Y36830
X24638Y39370
X24638Y41910
X24638Y44450
X24638Y46990
X24638Y49530
X24638Y52070
X31013Y23012
X28473Y23012
X68326Y52070
X68326Y49530
X68326Y46990
X68326Y44450
X68326Y41910
X68326Y39370
X68326Y36830
X68326Y34290
X68326Y31750
X68326Y29210
X68326Y26670
X68326Y24130
X68326Y21590
X68326Y19050
X68326Y16510
X68326Y13970
X48006Y24130
X48006Y26670
X48006Y29210
X48006Y31750
X48006Y34290
X48006Y36830
X48006Y39370
X48006Y41910
X48006Y44450
X48006Y46990
X48006Y49530
X48006Y52070
X54381Y23012
X51841Y23012
X91694Y52070
X91694Y49530
X91694Y46990
X91694Y44450
X91694Y41910
X91694Y39370
X91694Y36830
X91694Y34290
X91694Y31750
X91694Y29210
X91694Y26670
X91694Y24130
X91694Y21590
X91694Y19050
X91694Y16510
X91694Y13970
X71374Y24130
X71374Y26670
X71374Y29210
X71374Y31750
X71374Y34290
X71374Y36830
X71374Y39370
X71374Y41910
X71374Y44450
X71374Y46990
X71374Y49530
X71374Y52070
X77749Y23012
X75209Y23012
X21590Y113538
X21590Y110998
X21590Y108458
X21590Y105918
X21590Y103378
X21590Y100838
X21590Y98298
X21590Y95758
X21590Y93218
X21590Y90678
X21590Y88138
X21590Y85598
X21590Y83058
X21590Y80518
X21590Y77978
X21590Y75438
X1270Y85598
X1270Y88138
X1270Y90678
X1270Y93218
X1270Y95758
X1270Y98298
X1270Y100838
X1270Y103378
X1270Y105918
X1270Y108458
X1270Y110998
X1270Y113538
X7645Y84480
X5105Y84480
X44958Y113538
X44958Y110998
X44958Y108458
X44958Y105918
X44958Y103378
X44958Y100838
X44958Y98298
X44958Y95758
X44958Y93218
X44958Y90678
X44958Y88138
X44958Y85598
X44958Y83058
X44958Y80518
X44958Y77978
X44958Y75438
X24638Y85598
X24638Y88138
X24638Y90678
X24638Y93218
X24638Y95758
X24638Y98298
X24638Y100838
X24638Y103378
X24638Y105918
X24638Y108458
X24638Y110998
X24638Y113538
X31013Y84480
X28473Y84480
X68326Y113538
X68326Y110998
X68326Y108458
X68326Y105918
X68326Y103378
X68326Y100838
X68326Y98298
X68326Y95758
X68326Y93218
X68326Y90678
X68326Y88138
X68326Y85598
X68326Y83058
X68326Y80518
X68326Y77978
X68326Y75438
X48006Y85598
X48006Y88138
X48006Y90678
X48006Y93218
X48006Y95758
X48006Y98298
X48006Y100838
X48006Y103378
X48006Y105918
X48006Y108458
X48006Y110998
X48006Y113538
X54381Y84480
X51841Y84480
X91694Y113538
X91694Y110998
X91694Y108458
X91694Y105918
X91694Y103378
X91694Y100838
X91694Y98298
X91694Y95758
X91694Y93218
X91694Y90678
X91694Y88138
X91694Y85598
X91694Y83058
X91694Y80518
X91694Y77978
X91694Y75438
X71374Y85598
X71374Y88138
X71374Y90678
X71374Y93218
X71374Y95758
X71374Y98298
X71374Y100838
X71374Y103378
X71374Y105918
X71374Y108458
X71374Y110998
X71374Y113538
X77749Y84480
X75209Y84480
X21590Y175006
X21590Y172466
X21590Y169926
X21590Y167386
X21590Y164846
X21590Y162306
X21590Y159766
X21590Y157226
X21590Y154686
X21590Y152146
X21590Y149606
X21590Y147066
X21590Y144526
X21590Y141986
X21590Y139446
X21590Y136906
X1270Y147066
X1270Y149606
X1270Y152146
X1270Y154686
X1270Y157226
X1270Y159766
X1270Y162306
X1270Y164846
X1270Y167386
X1270Y169926
X1270Y172466
X1270Y175006
X7645Y145948
X5105Y145948
X44958Y175006
X44958Y172466
X44958Y169926
X44958Y167386
X44958Y164846
X44958Y162306
X44958Y159766
X44958Y157226
X44958Y154686
X44958Y152146
X44958Y149606
X44958Y147066
X44958Y144526
X44958Y141986
X44958Y139446
X44958Y136906
X24638Y147066
X24638Y149606
X24638Y152146
X24638Y154686
X24638Y157226
X24638Y159766
X24638Y162306
X24638Y164846
X24638Y167386
X24638Y169926
X24638Y172466
X24638Y175006
X31013Y145948
X28473Y145948
X68326Y175006
X68326Y172466
X68326Y169926
X68326Y167386
X68326Y164846
X68326Y162306
X68326Y159766
X68326Y157226
X68326Y154686
X68326Y152146
X68326Y149606
X68326Y147066
X68326Y144526
X68326Y141986
X68326Y139446
X68326Y136906
X48006Y147066
X48006Y149606
X48006Y152146
X48006Y154686
X48006Y157226
X48006Y159766
X48006Y162306
X48006Y164846
X48006Y167386
X48006Y169926
X48006Y172466
X48006Y175006
X54381Y145948
X51841Y145948
X91694Y175006
X91694Y172466
X91694Y169926
X91694Y167386
X91694Y164846
T3
X8540Y4651
X14320Y4651
X31908Y4651
X37688Y4651
X55276Y4651
X61056Y4651
X78644Y4651
X84424Y4651
X8540Y66119
X14320Y66119
X31908Y66119
X37688Y66119
X55276Y66119
X61056Y66119
X78644Y66119
X84424Y66119
X8540Y127587
X14320Y127587
X31908Y127587
X37688Y127587
X55276Y127587
X61056Y127587
X78644Y127587
X84424Y127587
T4
X30946Y47159
X27605Y37391
X28123Y33289
X30965Y46078
X27704Y38933
X26782Y36335
X37059Y33000
X36609Y36843
X30521Y33777
X40842Y35535
X39296Y40295
X32040Y49352
X35811Y8037
X28115Y13609
X37038Y13068
X44287Y8593
X43922Y14907
X36589Y39375
X56777Y42629
X57429Y42609
X57422Y41907
X56787Y41902
X55941Y30584
X56446Y30574
X56444Y30058
X55941Y30069
X50683Y9893
X56264Y34399
X49152Y7681
X61295Y22814
X58400Y20028
X58423Y19568
X55110Y19990
X54554Y19995
X54552Y29093
X55062Y29083
X67544Y7478
X58138Y38898
X53736Y55040
X53741Y56546
X54301Y57311
X53072Y57322
X62577Y55040
X62562Y56557
X62001Y57311
X63282Y57311
X55401Y54311
X56501Y54311
X59801Y54311
X60901Y54311
X58701Y49361
X58151Y49911
X57601Y49361
X58151Y48811
X58701Y48261
X59251Y48811
X59251Y49911
X57051Y49911
X57051Y48811
X57601Y48261
X53751Y43861
X53201Y44411
X62551Y43861
X63101Y44411
X54301Y44961
X55401Y46061
X62001Y44961
X60901Y46061
X58701Y54311
X57601Y54311
X63261Y55817
X53082Y55811
X59251Y51561
X59251Y52661
X57051Y51561
X57051Y52661
X59251Y53761
X57051Y53761
X58166Y7798
X61796Y27940
X61404Y7633
X53536Y14453
X50797Y25458
X58260Y24016
X58908Y17714
X62865Y16853
X62873Y17531
X62184Y16899
X63553Y16873
X62842Y16165
X53376Y27150
X56378Y36228
X54892Y13754
X61278Y13078
X67437Y12136
X64516Y559
X51869Y574
X47280Y5184
X47280Y10147
X47272Y15641
X47272Y19942
X58306Y16822
X52695Y15753
X55080Y17833
X51943Y56388
X47498Y53848
X64389Y56388
X68453Y53594
X61773Y32032
X61758Y28903
X61267Y25184
X55687Y22139
X51244Y35202
X60000Y36147
X60366Y34369
X62586Y38057
X50546Y10922
X51816Y11684
X54356Y6985
X52451Y4826
X49985Y53512
X51286Y54348
X52431Y29334
X49809Y7175
X62113Y20869
X64412Y22433
X63238Y23927
X64546Y40973
X66431Y45382
X56962Y31354
X55621Y33353
X52131Y55435
X67282Y40780
X66096Y44028
X64639Y51369
X63430Y53187
X64244Y45606
X58966Y14265
X65359Y12512
X53932Y38636
X53960Y41618
X51730Y40239
X52398Y51572
X47300Y35573
X47287Y38118
X69042Y33038
X69022Y25405
X65019Y15014
X50805Y25931
X52893Y32055
X63208Y41283
X61951Y41364
X60711Y39977
X51737Y38997
X51686Y36906
X67775Y25418
X66365Y42934
X64666Y31816
X50343Y31039
X48567Y30480
X53063Y48720
X50178Y16655
X50924Y20912
X54082Y20719
X60985Y26317
X50272Y27208
X48727Y16942
X64651Y19604
X58273Y21613
X64222Y48097
X69030Y48239
X59273Y4102
X59858Y4077
X59273Y3518
X56947Y22962
X56947Y22421
X58166Y10109
X65479Y13868
X56314Y28882
X56866Y28882
X59845Y3526
X63899Y3414
X61656Y26970
X53886Y29065
X57000Y26995
X55725Y24191
X54163Y25364
X64191Y23251
X51209Y12558
X64206Y33668
X63050Y20274
X62667Y39563
X63617Y33355
X62374Y20270
X62680Y38793
X66929Y22949
X61900Y23360
X62574Y21969
X62537Y36236
X55255Y935
X55423Y32669
X57417Y4874
X58418Y4869
X67005Y42873
X61150Y24216
X50615Y7894
X49279Y30475
X60917Y48257
X49388Y51539
X50604Y8893
X49822Y29914
X62027Y47153
X65941Y40185
X53457Y40361
X65146Y36812
X52934Y39342
X51968Y40945
X65372Y41913
X52451Y40015
X55405Y48252
X63599Y51539
X62570Y40955
X63330Y43779
X63591Y48092
X50079Y42421
X54314Y47159
X50973Y37391
X51491Y33289
X54333Y46078
X51072Y38933
X50150Y36335
X60427Y33000
X59977Y36843
X53889Y33777
X64210Y35535
X62664Y40295
X55408Y49352
X59179Y8037
X51483Y13609
X60406Y13068
X67655Y8593
X67290Y14907
X59957Y39375
X80145Y42629
X80797Y42609
X80790Y41907
X80155Y41902
X79309Y30584
X79814Y30574
X79812Y30058
X79309Y30069
X74051Y9893
X79632Y34399
X72520Y7681
X84663Y22814
X81768Y20028
X81791Y19568
X78478Y19990
X77922Y19995
X77920Y29093
X78430Y29083
X90912Y7478
X81506Y38898
X77104Y55040
X77109Y56546
X77669Y57311
X76440Y57322
X85945Y55040
X85930Y56557
X85369Y57311
X86650Y57311
X78769Y54311
X79869Y54311
X83169Y54311
X84269Y54311
X82069Y49361
X81519Y49911
X80969Y49361
X81519Y48811
X82069Y48261
X82619Y48811
X82619Y49911
X80419Y49911
X80419Y48811
X80969Y48261
X77119Y43861
X76569Y44411
X85919Y43861
X86469Y44411
X77669Y44961
X78769Y46061
X85369Y44961
X84269Y46061
X82069Y54311
X80969Y54311
X86629Y55817
X76450Y55811
X82619Y51561
X82619Y52661
X80419Y51561
X80419Y52661
X82619Y53761
X80419Y53761
X81534Y7798
X85164Y27940
X84773Y7633
X76904Y14453
X74165Y25458
X81628Y24016
X82276Y17714
X86233Y16853
X86241Y17531
X85552Y16899
X86921Y16873
X86210Y16165
X76744Y27150
X79746Y36228
X78260Y13754
X84646Y13078
X90805Y12136
X87884Y559
X75237Y574
X70648Y5184
X70648Y10147
X70640Y15641
X70640Y19942
X81674Y16822
X76063Y15753
X78448Y17833
X75311Y56388
X70866Y53848
X87757Y56388
X91821Y53594
X85141Y32032
X85126Y28903
X84635Y25184
X79055Y22139
X74612Y35202
X83368Y36147
X83734Y34369
X85954Y38057
X73914Y10922
X75184Y11684
X77724Y6985
X75819Y4826
X73353Y53512
X74654Y54348
X75799Y29334
X73177Y7175
X85481Y20869
X87780Y22433
X86606Y23927
X87914Y40973
X89799Y45382
X80330Y31354
X78989Y33353
X75499Y55435
X90650Y40780
X89464Y44028
X88007Y51369
X86798Y53187
X87612Y45606
X82334Y14265
X88727Y12512
X77300Y38636
X77328Y41618
X75098Y40239
X75766Y51572
X70668Y35573
X70655Y38118
X92410Y33038
X92390Y25405
X88387Y15014
X74173Y25931
X76261Y32055
X86576Y41283
X85319Y41364
X84079Y39977
X75105Y38997
X75054Y36906
X91143Y25418
X89733Y42934
X88034Y31816
X73711Y31039
X71935Y30480
X76431Y48720
X73546Y16655
X74292Y20912
X77450Y20719
X84353Y26317
X73640Y27208
X72095Y16942
X88019Y19604
X81641Y21613
X87590Y48097
X92398Y48239
X82641Y4102
X83226Y4077
X82641Y3518
X80315Y22962
X80315Y22421
X81534Y10109
X88847Y13868
X79682Y28882
X80234Y28882
X83213Y3526
X87267Y3414
X85024Y26970
X77254Y29065
X80368Y26995
X79093Y24191
X77531Y25364
X87559Y23251
X74577Y12558
X87574Y33668
X86418Y20274
X86035Y39563
X86985Y33355
X85742Y20270
X86048Y38793
X90297Y22949
X85268Y23360
X85942Y21969
X85905Y36236
X78623Y935
X78791Y32669
X80785Y4874
X81786Y4869
X90373Y42873
X84519Y24216
X73983Y7894
X72647Y30475
X84285Y48257
X72756Y51539
X73972Y8893
X73190Y29914
X85395Y47153
X89309Y40185
X76825Y40361
X88514Y36812
X76302Y39342
X75336Y40945
X88740Y41913
X75819Y40015
X78773Y48252
X86967Y51539
X85938Y40955
X86698Y43779
X86959Y48092
X73447Y42421
X77682Y47159
X74341Y37391
X74859Y33289
X77701Y46078
X74440Y38933
X73518Y36335
X83795Y33000
X83345Y36843
X77257Y33777
X87578Y35535
X86032Y40295
X78776Y49352
X82547Y8037
X74851Y13609
X83774Y13068
X91023Y8593
X90658Y14907
X83325Y39375
X10041Y104097
X10693Y104076
X10686Y103375
X10051Y103370
X9205Y92052
X9710Y92042
X9708Y91526
X9205Y91537
X3947Y71361
X9528Y95867
X2416Y69149
X14559Y84282
X11664Y81496
X11687Y81036
X8374Y81458
X7818Y81463
X7816Y90561
X8326Y90551
X20808Y68946
X11402Y100366
X7000Y116508
X7005Y118014
X7565Y118779
X6336Y118790
X15841Y116508
X15826Y118025
X15265Y118779
X16546Y118779
X8665Y115779
X9765Y115779
X13065Y115779
X14165Y115779
X11965Y110829
X11415Y111379
X10865Y110829
X11415Y110279
X11965Y109729
X12515Y110279
X12515Y111379
X10315Y111379
X10315Y110279
X10865Y109729
X7015Y105329
X6465Y105879
X15815Y105329
X16365Y105879
X7565Y106429
X8665Y107529
X15265Y106429
X14165Y107529
X11965Y115779
X10865Y115779
X16525Y117285
X6346Y117279
X12515Y113029
X12515Y114129
X10315Y113029
X10315Y114129
X12515Y115229
X10315Y115229
X11430Y69266
X15060Y89408
X14668Y69101
X6800Y75921
X4061Y86926
X11524Y85484
X12172Y79182
X16129Y78321
X16137Y78999
X15448Y78367
X16817Y78341
X16106Y77633
X6640Y88618
X9642Y97696
X8156Y75222
X14542Y74546
X20701Y73604
X17780Y62027
X5133Y62042
X544Y66652
X544Y71615
X536Y77109
X536Y81410
X11570Y78290
X5959Y77221
X8344Y79301
X5207Y117856
X762Y115316
X17653Y117856
X21717Y115062
X15037Y93500
X15022Y90371
X14531Y86652
X8951Y83607
X4508Y96670
X13264Y97615
X13630Y95837
X15850Y99525
X3810Y72390
X5080Y73152
X7620Y68453
X5715Y66294
X3249Y114980
X4550Y115816
X5695Y90802
X3073Y68644
X15377Y82337
X17676Y83901
X16502Y85395
X17810Y102441
X19695Y106850
X10226Y92822
X8885Y94821
X5395Y116903
X20546Y102248
X19360Y105496
X17903Y112837
X16694Y114655
X17508Y107074
X12230Y75733
X18623Y73980
X7196Y100104
X7224Y103086
X4994Y101707
X5662Y113040
X564Y97041
X551Y99586
X22306Y94506
X22286Y86873
X18283Y76482
X4069Y87399
X6157Y93523
X16472Y102751
X15215Y102832
X13975Y101445
X5001Y100465
X4950Y98374
X21039Y86886
X19629Y104402
X17930Y93284
X3607Y92507
X1831Y91948
X6327Y110188
X3442Y78123
X4188Y82380
X7346Y82187
X14249Y87785
X3536Y88676
X1991Y78410
X17915Y81072
X11537Y83081
X17486Y109565
X22294Y109707
X12537Y65570
X13122Y65545
X12537Y64986
X10211Y84430
X10211Y83889
X11430Y71577
X18743Y75336
X9578Y90350
X10130Y90350
X13109Y64994
X17163Y64882
X14920Y88438
X7150Y90533
X10264Y88463
X8989Y85659
X7427Y86832
X17455Y84719
X4473Y74026
X17470Y95136
X16314Y81742
X15931Y101031
X16881Y94823
X15638Y81738
X15944Y100261
X20193Y84417
X15164Y84828
X15838Y83437
X15801Y97704
X8519Y62403
X8687Y94137
X10681Y66342
X11682Y66337
X20269Y104341
X14414Y85684
X3879Y69362
X2543Y91943
X14181Y109725
X2652Y113007
X3868Y70361
X3086Y91382
X15291Y108621
X19205Y101653
X6721Y101829
X18410Y98280
X6198Y100810
X5232Y102413
X18636Y103381
X5715Y101483
X8669Y109720
X16863Y113007
X15834Y102423
X16594Y105247
X16855Y109560
X3343Y103889
X7578Y108627
X4237Y98859
X4755Y94757
X7597Y107546
X4336Y100401
X3414Y97803
X13691Y94468
X13241Y98311
X7153Y95245
X17474Y97003
X15928Y101763
X8672Y110820
X12443Y69505
X4747Y75077
X13670Y74536
X20919Y70061
X20554Y76375
X13221Y100843
X33409Y104097
X34061Y104076
X34054Y103375
X33419Y103370
X32573Y92052
X33078Y92042
X33076Y91526
X32573Y91537
X27315Y71361
X32896Y95867
X25784Y69149
X37927Y84282
X35032Y81496
X35055Y81036
X31742Y81458
X31186Y81463
X31184Y90561
X31694Y90551
X44176Y68946
X34770Y100366
X30368Y116508
X30373Y118014
X30933Y118779
X29704Y118790
X39209Y116508
X39194Y118025
X38633Y118779
X39914Y118779
X32033Y115779
X33133Y115779
X36433Y115779
X37533Y115779
X35333Y110829
X34783Y111379
X34233Y110829
X34783Y110279
X35333Y109729
X35883Y110279
X35883Y111379
X33683Y111379
X33683Y110279
X34233Y109729
X30383Y105329
X29833Y105879
X39183Y105329
X39733Y105879
X30933Y106429
X32033Y107529
X38633Y106429
X37533Y107529
X35333Y115779
X34233Y115779
X39893Y117285
X29714Y117279
X35883Y113029
X35883Y114129
X33683Y113029
X33683Y114129
X35883Y115229
X33683Y115229
X34798Y69266
X38428Y89408
X38037Y69101
X30168Y75921
X27429Y86926
X34892Y85484
X35540Y79182
X39497Y78321
X39505Y78999
X38816Y78367
X40185Y78341
X39474Y77633
X30008Y88618
X33010Y97696
X31524Y75222
X37910Y74546
X44069Y73604
X41148Y62027
X28501Y62042
X23912Y66652
X23912Y71615
X23904Y77109
X23904Y81410
X34938Y78290
X29327Y77221
X31712Y79301
X28575Y117856
X24130Y115316
X41021Y117856
X45085Y115062
X38405Y93500
X38390Y90371
X37899Y86652
X32319Y83607
X27876Y96670
X36632Y97615
X36998Y95837
X39218Y99525
X27178Y72390
X28448Y73152
X30988Y68453
X29083Y66294
X26617Y114980
X27918Y115816
X29063Y90802
X26441Y68644
X38745Y82337
X41044Y83901
X39870Y85395
X41178Y102441
X43063Y106850
X33594Y92822
X32253Y94821
X28763Y116903
X43914Y102248
X42728Y105496
X41271Y112837
X40062Y114655
X40876Y107074
X35598Y75733
X41991Y73980
X30564Y100104
X30592Y103086
X28362Y101707
X29030Y113040
X23932Y97041
X23919Y99586
X45674Y94506
X45654Y86873
X41651Y76482
X27437Y87399
X29525Y93523
X39840Y102751
X38583Y102832
X37343Y101445
X28369Y100465
X28318Y98374
X44407Y86886
X42997Y104402
X41298Y93284
X26975Y92507
X25199Y91948
X29695Y110188
X26810Y78123
X27556Y82380
X30714Y82187
X37617Y87785
X26904Y88676
X25359Y78410
X41283Y81072
X34905Y83081
X40854Y109565
X45662Y109707
X35905Y65570
X36490Y65545
X35905Y64986
X33579Y84430
X33579Y83889
X34798Y71577
X42111Y75336
X32946Y90350
X33498Y90350
X36477Y64994
X40531Y64882
X38288Y88438
X30518Y90533
X33632Y88463
X32357Y85659
X30795Y86832
X40823Y84719
X27841Y74026
X40838Y95136
X39682Y81742
X39299Y101031
X40249Y94823
X39006Y81738
X39312Y100261
X43561Y84417
X38532Y84828
X39206Y83437
X39169Y97704
X31887Y62403
X32055Y94137
X34049Y66342
X35050Y66337
X43637Y104341
X37783Y85684
X27247Y69362
X25911Y91943
X37549Y109725
X26020Y113007
X27236Y70361
X26454Y91382
X38659Y108621
X42573Y101653
X30089Y101829
X41778Y98280
X29566Y100810
X28600Y102413
X42004Y103381
X29083Y101483
X32037Y109720
X40231Y113007
X39202Y102423
X39962Y105247
X40223Y109560
X26711Y103889
X30946Y108627
X27605Y98859
X28123Y94757
X30965Y107546
X27704Y100401
X26782Y97803
X37059Y94468
X36609Y98311
X30521Y95245
X40842Y97003
X39296Y101763
X32040Y110820
X35811Y69505
X28115Y75077
X37038Y74536
X44287Y70061
X43922Y76375
X36589Y100843
X56777Y104097
X57429Y104076
X57422Y103375
X56787Y103370
X55941Y92052
X56446Y92042
X56444Y91526
X55941Y91537
X50683Y71361
X56264Y95867
X49152Y69149
X61295Y84282
X58400Y81496
X58423Y81036
X55110Y81458
X54554Y81463
X54552Y90561
X55062Y90551
X67544Y68946
X58138Y100366
X53736Y116508
X53741Y118014
X54301Y118779
X53072Y118790
X62577Y116508
X62562Y118025
X62001Y118779
X63282Y118779
X55401Y115779
X56501Y115779
X59801Y115779
X60901Y115779
X58701Y110829
X58151Y111379
X57601Y110829
X58151Y110279
X58701Y109729
X59251Y110279
X59251Y111379
X57051Y111379
X57051Y110279
X57601Y109729
X53751Y105329
X53201Y105879
X62551Y105329
X63101Y105879
X54301Y106429
X55401Y107529
X62001Y106429
X60901Y107529
X58701Y115779
X57601Y115779
X63261Y117285
X53082Y117279
X59251Y113029
X59251Y114129
X57051Y113029
X57051Y114129
X59251Y115229
X57051Y115229
X58166Y69266
X61796Y89408
X61404Y69101
X53536Y75921
X50797Y86926
X58260Y85484
X58908Y79182
X62865Y78321
X62873Y78999
X62184Y78367
X63553Y78341
X62842Y77633
X53376Y88618
X56378Y97696
X54892Y75222
X61278Y74546
X67437Y73604
X64516Y62027
X51869Y62042
X47280Y66652
X47280Y71615
X47272Y77109
X47272Y81410
X58306Y78290
X52695Y77221
X55080Y79301
X51943Y117856
X47498Y115316
X64389Y117856
X68453Y115062
X61773Y93500
X61758Y90371
X61267Y86652
X55687Y83607
X51244Y96670
X60000Y97615
X60366Y95837
X62586Y99525
X50546Y72390
X51816Y73152
X54356Y68453
X52451Y66294
X49985Y114980
X51286Y115816
X52431Y90802
X49809Y68644
X62113Y82337
X64412Y83901
X63238Y85395
X64546Y102441
X66431Y106850
X56962Y92822
X55621Y94821
X52131Y116903
X67282Y102248
X66096Y105496
X64639Y112837
X63430Y114655
X64244Y107074
X58966Y75733
X65359Y73980
X53932Y100104
X53960Y103086
X51730Y101707
X52398Y113040
X47300Y97041
X47287Y99586
X69042Y94506
X69022Y86873
X65019Y76482
X50805Y87399
X52893Y93523
X63208Y102751
X61951Y102832
X60711Y101445
X51737Y100465
X51686Y98374
X67775Y86886
X66365Y104402
X64666Y93284
X50343Y92507
X48567Y91948
X53063Y110188
X50178Y78123
X50924Y82380
X54082Y82187
X60985Y87785
X50272Y88676
X48727Y78410
X64651Y81072
X58273Y83081
X64222Y109565
X69030Y109707
X59273Y65570
X59858Y65545
X59273Y64986
X56947Y84430
X56947Y83889
X58166Y71577
X65479Y75336
X56314Y90350
X56866Y90350
X59845Y64994
X63899Y64882
X61656Y88438
X53886Y90533
X57000Y88463
X55725Y85659
X54163Y86832
X64191Y84719
X51209Y74026
X64206Y95136
X63050Y81742
X62667Y101031
X63617Y94823
X62374Y81738
X62680Y100261
X66929Y84417
X61900Y84828
X62574Y83437
X62537Y97704
X55255Y62403
X55423Y94137
X57417Y66342
X58418Y66337
X67005Y104341
X61150Y85684
X50615Y69362
X49279Y91943
X60917Y109725
X49388Y113007
X50604Y70361
X49822Y91382
X62027Y108621
X65941Y101653
X53457Y101829
X65146Y98280
X52934Y100810
X51968Y102413
X65372Y103381
X52451Y101483
X55405Y109720
X63599Y113007
X62570Y102423
X63330Y105247
X63591Y109560
X50079Y103889
X54314Y108627
X50973Y98859
X51491Y94757
X54333Y107546
X51072Y100401
X50150Y97803
X60427Y94468
X59977Y98311
X53889Y95245
X33632Y26995
X62664Y101763
X55408Y110820
X59179Y69505
X51483Y75077
X60406Y74536
X67655Y70061
X67290Y76375
X59957Y100843
X80145Y104097
X80797Y104076
X80790Y103375
X80155Y103370
X79309Y92052
X79814Y92042
X79812Y91526
X79309Y91537
X74051Y71361
X79632Y95867
X72520Y69149
X84663Y84282
X81768Y81496
X81791Y81036
X78478Y81458
X77922Y81463
X77920Y90561
X78430Y90551
X90912Y68946
X81506Y100366
X77104Y116508
X77109Y118014
X77669Y118779
X76440Y118790
X85945Y116508
X85930Y118025
X85369Y118779
X86650Y118779
X78769Y115779
X79869Y115779
X83169Y115779
X84269Y115779
X82069Y110829
X81519Y111379
X80969Y110829
X81519Y110279
X82069Y109729
X82619Y110279
X82619Y111379
X80419Y111379
X80419Y110279
X80969Y109729
X77119Y105329
X76569Y105879
X85919Y105329
X86469Y105879
X77669Y106429
X78769Y107529
X85369Y106429
X84269Y107529
X82069Y115779
X80969Y115779
X86629Y117285
X76450Y117279
X82619Y113029
X82619Y114129
X80419Y113029
X80419Y114129
X82619Y115229
X80419Y115229
X81534Y69266
X85164Y89408
X84773Y69101
X76904Y75921
X74165Y86926
X81628Y85484
X82276Y79182
X86233Y78321
X86241Y78999
X85552Y78367
X86921Y78341
X86210Y77633
X76744Y88618
X79746Y97696
X78260Y75222
X84646Y74546
X90805Y73604
X87884Y62027
X75237Y62042
X70648Y66652
X70648Y71615
X70640Y77109
X70640Y81410
X81674Y78290
X76063Y77221
X78448Y79301
X75311Y117856
X70866Y115316
X87757Y117856
X91821Y115062
X85141Y93500
X85126Y90371
X84635Y86652
X79055Y83607
X74612Y96670
X83368Y97615
X83734Y95837
X85954Y99525
X73914Y72390
X75184Y73152
X77724Y68453
X75819Y66294
X73353Y114980
X74654Y115816
X75799Y90802
X73177Y68644
X85481Y82337
X87780Y83901
X86606Y85395
X87914Y102441
X89799Y106850
X80330Y92822
X78989Y94821
X75499Y116903
X90650Y102248
X89464Y105496
X88007Y112837
X86798Y114655
X87612Y107074
X82334Y75733
X88727Y73980
X77300Y100104
X77328Y103086
X75098Y101707
X75766Y113040
X70668Y97041
X70655Y99586
X92410Y94506
X92390Y86873
X88387Y76482
X74173Y87399
X76261Y93523
X86576Y102751
X85319Y102832
X84079Y101445
X75105Y100465
X75054Y98374
X91143Y86886
X89733Y104402
X88034Y93284
X73711Y92507
X71935Y91948
X76431Y110188
X73546Y78123
X74292Y82380
X77450Y82187
X84353Y87785
X73640Y88676
X72095Y78410
X88019Y81072
X81641Y83081
X87590Y109565
X92398Y109707
X82641Y65570
X83226Y65545
X82641Y64986
X80315Y84430
X80315Y83889
X81534Y71577
X88847Y75336
X79682Y90350
X80234Y90350
X83213Y64994
X87267Y64882
X85024Y88438
X77254Y90533
X80368Y88463
X79093Y85659
X77531Y86832
X87559Y84719
X74577Y74026
X87574Y95136
X86418Y81742
X86035Y101031
X86985Y94823
X85742Y81738
X86048Y100261
X90297Y84417
X85268Y84828
X85942Y83437
X85905Y97704
X78623Y62403
X78791Y94137
X80785Y66342
X81786Y66337
X90373Y104341
X84519Y85684
X73983Y69362
X72647Y91943
X84285Y109725
X72756Y113007
X73972Y70361
X73190Y91382
X85395Y108621
X89309Y101653
X76825Y101829
X88514Y98280
X76302Y100810
X75336Y102413
X88740Y103381
X75819Y101483
X78773Y109720
X86967Y113007
X85938Y102423
X86698Y105247
X86959Y109560
X73447Y103889
X77682Y108627
X74341Y98859
X74859Y94757
X77701Y107546
X74440Y100401
X73518Y97803
X83795Y94468
X83345Y98311
X77257Y95245
X87578Y97003
X86032Y101763
X78776Y110820
X82547Y69505
X74851Y75077
X83774Y74536
X91023Y70061
X90658Y76375
X83325Y100843
X10041Y165565
X10693Y165545
X10686Y164843
X10051Y164838
X9205Y153520
X9710Y153510
X9708Y152994
X9205Y153005
X3947Y132829
X9528Y157335
X2416Y130617
X14559Y145750
X11664Y142964
X11687Y142504
X8374Y142926
X7818Y142931
X7816Y152029
X8326Y152019
X20808Y130414
X11402Y161834
X7000Y177976
X7005Y179482
X7565Y180247
X6336Y180258
X15841Y177976
X15826Y179493
X15265Y180247
X16546Y180247
X8665Y177247
X9765Y177247
X13065Y177247
X14165Y177247
X11965Y172297
X11415Y172847
X10865Y172297
X11415Y171747
X11965Y171197
X12515Y171747
X12515Y172847
X10315Y172847
X10315Y171747
X10865Y171197
X7015Y166797
X6465Y167347
X15815Y166797
X16365Y167347
X7565Y167897
X8665Y168997
X15265Y167897
X14165Y168997
X11965Y177247
X10865Y177247
X16525Y178753
X6346Y178747
X12515Y174497
X12515Y175597
X10315Y174497
X10315Y175597
X12515Y176697
X10315Y176697
X11430Y130734
X15060Y150876
X14668Y130569
X6800Y137389
X4061Y148394
X11524Y146952
X12172Y140650
X16129Y139789
X16137Y140467
X15448Y139835
X16817Y139809
X16106Y139101
X6640Y150086
X9642Y159164
X8156Y136690
X14542Y136014
X20701Y135072
X17780Y123495
X5133Y123510
X544Y128120
X544Y133083
X536Y138577
X536Y142878
X11570Y139758
X5959Y138689
X8344Y140769
X5207Y179324
X762Y176784
X17653Y179324
X21717Y176530
X15037Y154968
X15022Y151839
X14531Y148120
X8951Y145075
X4508Y158138
X13264Y159083
X13630Y157305
X15850Y160993
X3810Y133858
X5080Y134620
X7620Y129921
X5715Y127762
X3249Y176448
X4550Y177284
X5695Y152270
X3073Y130111
X15377Y143805
X17676Y145369
X16502Y146863
X17810Y163909
X19695Y168318
X10226Y154290
X8885Y156289
X5395Y178371
X20546Y163716
X19360Y166964
X17903Y174305
X16694Y176123
X17508Y168542
X12230Y137201
X18623Y135448
X7196Y161572
X7224Y164554
X4994Y163175
X5662Y174508
X564Y158509
X551Y161054
X22306Y155974
X22286Y148341
X18283Y137950
X4069Y148867
X6157Y154991
X16472Y164219
X15215Y164300
X13975Y162913
X5001Y161933
X4950Y159842
X21039Y148354
X19629Y165870
X17930Y154752
X3607Y153975
X1831Y153416
X6327Y171656
X3442Y139591
X4188Y143848
X7346Y143655
X14249Y149253
X3536Y150144
X1991Y139878
X17915Y142540
X11537Y144549
X17486Y171033
X22294Y171175
X12537Y127038
X13122Y127013
X12537Y126454
X10211Y145898
X10211Y145357
X11430Y133045
X18743Y136804
X9578Y151818
X10130Y151818
X13109Y126462
X17163Y126350
X14920Y149906
X7150Y152001
X10264Y149931
X8989Y147127
X7427Y148300
X17455Y146187
X4473Y135494
X17470Y156604
X16314Y143210
X15931Y162499
X16881Y156291
X15638Y143206
X15944Y161729
X20193Y145885
X15164Y146296
X15838Y144905
X15801Y159172
X8519Y123871
X8687Y155605
X10681Y127810
X11682Y127805
X20269Y165809
X14414Y147152
X3879Y130830
X2543Y153411
X14181Y171193
X2652Y174475
X3868Y131829
X3086Y152850
X15291Y170089
X19205Y163121
X6721Y163297
X18410Y159748
X6198Y162278
X5232Y163881
X18636Y164849
X5715Y162951
X8669Y171188
X16863Y174475
X15834Y163891
X16594Y166715
X16855Y171028
X3343Y165357
X7578Y170095
X4237Y160327
X4755Y156225
X7597Y169014
X4336Y161869
X3414Y159271
X13691Y155936
X13241Y159779
X7153Y156713
X17474Y158471
X15928Y163231
X8672Y172288
X12443Y130973
X4747Y136545
X13670Y136004
X20919Y131529
X20554Y137843
X13221Y162311
X33409Y165565
X34061Y165545
X34054Y164843
X33419Y164838
X32573Y153520
X33078Y153510
X33076Y152994
X32573Y153005
X27315Y132829
X32896Y157335
X25784Y130617
X37927Y145750
X35032Y142964
X35055Y142504
X31742Y142926
X31186Y142931
X31184Y152029
X31694Y152019
X44176Y130414
X34770Y161834
X30368Y177976
X30373Y179482
X30933Y180247
X29704Y180258
X39209Y177976
X39194Y179493
X38633Y180247
X39914Y180247
X32033Y177247
X33133Y177247
X36433Y177247
X37533Y177247
X35333Y172297
X34783Y172847
X34233Y172297
X34783Y171747
X35333Y171197
X35883Y171747
X35883Y172847
X33683Y172847
X33683Y171747
X34233Y171197
X30383Y166797
X29833Y167347
X39183Y166797
X39733Y167347
X30933Y167897
X32033Y168997
X38633Y167897
X37533Y168997
X35333Y177247
X34233Y177247
X39893Y178753
X29714Y178747
X35883Y174497
X35883Y175597
X33683Y174497
X33683Y175597
X35883Y176697
X33683Y176697
X34798Y130734
X38428Y150876
X38037Y130569
X30168Y137389
X27429Y148394
X34892Y146952
X35540Y140650
X39497Y139789
X39505Y140467
X38816Y139835
X40185Y139809
X39474Y139101
X30008Y150086
X33010Y159164
X31524Y136690
X37910Y136014
X44069Y135072
X41148Y123495
X28501Y123510
X23912Y128120
X23912Y133083
X23904Y138577
X23904Y142878
X34938Y139758
X29327Y138689
X31712Y140769
X28575Y179324
X24130Y176784
X41021Y179324
X45085Y176530
X38405Y154968
X38390Y151839
X37899Y148120
X32319Y145075
X27876Y158138
X36632Y159083
X36998Y157305
X39218Y160993
X27178Y133858
X28448Y134620
X30988Y129921
X29083Y127762
X26617Y176448
X27918Y177284
X29063Y152270
X26441Y130111
X38745Y143805
X41044Y145369
X39870Y146863
X41178Y163909
X43063Y168318
X33594Y154290
X32253Y156289
X28763Y178371
X43914Y163716
X42728Y166964
X41271Y174305
X40062Y176123
X40876Y168542
X35598Y137201
X41991Y135448
X30564Y161572
X30592Y164554
X28362Y163175
X29030Y174508
X23932Y158509
X23919Y161054
X45674Y155974
X45654Y148341
X41651Y137950
X27437Y148867
X29525Y154991
X39840Y164219
X38583Y164300
X37343Y162913
X28369Y161933
X28318Y159842
X44407Y148354
X42997Y165870
X41298Y154752
X26975Y153975
X25199Y153416
X29695Y171656
X26810Y139591
X27556Y143848
X30714Y143655
X37617Y149253
X26904Y150144
X25359Y139878
X41283Y142540
X34905Y144549
X40854Y171033
X45662Y171175
X35905Y127038
X36490Y127013
X35905Y126454
X33579Y145898
X33579Y145357
X34798Y133045
X42111Y136804
X32946Y151818
X33498Y151818
X36477Y126462
X40531Y126350
X38288Y149906
X30518Y152001
X33632Y149931
X32357Y147127
X30795Y148300
X40823Y146187
X27841Y135494
X40838Y156604
X39682Y143210
X39299Y162499
X40249Y156291
X39006Y143206
X39312Y161729
X43561Y145885
X38532Y146296
X39206Y144905
X39169Y159172
X31887Y123871
X32055Y155605
X34049Y127810
X35050Y127805
X43637Y165809
X37783Y147152
X27247Y130830
X25911Y153411
X37549Y171193
X26020Y174475
X27236Y131829
X26454Y152850
X38659Y170089
X42573Y163121
X30089Y163297
X41778Y159748
X29566Y162278
X28600Y163881
X42004Y164849
X29083Y162951
X32037Y171188
X40231Y174475
X39202Y163891
X39962Y166715
X40223Y171028
X26711Y165357
X30946Y170095
X27605Y160327
X28123Y156225
X30965Y169014
X27704Y161869
X26782Y159271
X37059Y155936
X36609Y159779
X30521Y156713
X40842Y158471
X39296Y163231
X32040Y172288
X35811Y130973
X28115Y136545
X37038Y136004
X44287Y131529
X43922Y137843
X36589Y162311
X56777Y165565
X57429Y165545
X57422Y164843
X56787Y164838
X55941Y153520
X56446Y153510
X56444Y152994
X55941Y153005
X50683Y132829
X56264Y157335
X49152Y130617
X61295Y145750
X58400Y142964
X58423Y142504
X55110Y142926
X54554Y142931
X54552Y152029
X55062Y152019
X67544Y130414
X58138Y161834
X53736Y177976
X53741Y179482
X54301Y180247
X53072Y180258
X62577Y177976
X62562Y179493
X62001Y180247
X63282Y180247
X55401Y177247
X56501Y177247
X59801Y177247
X60901Y177247
X58701Y172297
X58151Y172847
X57601Y172297
X58151Y171747
X58701Y171197
X59251Y171747
X59251Y172847
X57051Y172847
X57051Y171747
X57601Y171197
X53751Y166797
X53201Y167347
X62551Y166797
X63101Y167347
X54301Y167897
X55401Y168997
X62001Y167897
X60901Y168997
X58701Y177247
X57601Y177247
X63261Y178753
X53082Y178747
X59251Y174497
X59251Y175597
X57051Y174497
X57051Y175597
X59251Y176697
X57051Y176697
X58166Y130734
X61796Y150876
X61404Y130569
X53536Y137389
X50797Y148394
X58260Y146952
X58908Y140650
X62865Y139789
X62873Y140467
X62184Y139835
X63553Y139809
X62842Y139101
X53376Y150086
X56378Y159164
X54892Y136690
X61278Y136014
X67437Y135072
X64516Y123495
X51869Y123510
X47280Y128120
X47280Y133083
X47272Y138577
X47272Y142878
X58306Y139758
X52695Y138689
X55080Y140769
X51943Y179324
X47498Y176784
X64389Y179324
X68453Y176530
X61773Y154968
X61758Y151839
X61267Y148120
X55687Y145075
X51244Y158138
X60000Y159083
X60366Y157305
X62586Y160993
X50546Y133858
X10041Y42629
X54356Y129921
X52451Y127762
X49985Y176448
X51286Y177284
X52431Y152270
X49809Y130111
X62113Y143805
X64412Y145369
X63238Y146863
X64546Y163909
X66431Y168318
X56962Y154290
X55621Y156289
X52131Y178371
X67282Y163716
X66096Y166964
X64639Y174305
X63430Y176123
X64244Y168542
X58966Y137201
X65359Y135448
X53932Y161572
X53960Y164554
X51730Y163175
X52398Y174508
X47300Y158509
X47287Y161054
X69042Y155974
X69022Y148341
X65019Y137950
X50805Y148867
X52893Y154991
X63208Y164219
X61951Y164300
X60711Y162913
X51737Y161933
X51686Y159842
X67775Y148354
X66365Y165870
X64666Y154752
X50343Y153975
X48567Y153416
X53063Y171656
X50178Y139591
X50924Y143848
X54082Y143655
X60985Y149253
X50272Y150144
X48727Y139878
X64651Y142540
X58273Y144549
X64222Y171033
X69030Y171175
X59273Y127038
X59858Y127013
X59273Y126454
X56947Y145898
X56947Y145357
X58166Y133045
X65479Y136804
X56314Y151818
X56866Y151818
X59845Y126462
X63899Y126350
X61656Y149906
X53886Y152001
X57000Y149931
X55725Y147127
X54163Y148300
X64191Y146187
X51209Y135494
X64206Y156604
X63050Y143210
X62667Y162499
X63617Y156291
X62374Y143206
X62680Y161729
X66929Y145885
X61900Y146296
X62574Y144905
X62537Y159172
X55255Y123871
X55423Y155605
X57417Y127810
X58418Y127805
X67005Y165809
X61150Y147152
X50615Y130830
X49279Y153411
X60917Y171193
X49388Y174475
X50604Y131829
X49822Y152850
X62027Y170089
X65941Y163121
X53457Y163297
X65146Y159748
X52934Y162278
X51968Y163881
X65372Y164849
X52451Y162951
X55405Y171188
X63599Y174475
X62570Y163891
X63330Y166715
X63591Y171028
X50079Y165357
X54314Y170095
X50973Y160327
X51491Y156225
X54333Y169014
X51072Y161869
X50150Y159271
X60427Y155936
X59977Y159779
X53889Y156713
X64210Y158471
X62664Y163231
X55408Y172288
X59179Y130973
X51483Y136545
X60406Y136004
X67655Y131529
X67290Y137843
X59957Y162311
X80145Y165565
X80797Y165545
X80790Y164843
X80155Y164838
X79309Y153520
X79814Y153510
X79812Y152994
X79309Y153005
X74051Y132829
X79632Y157335
X72520Y130617
X84663Y145750
X81768Y142964
X81791Y142504
X78478Y142926
X77922Y142931
X77920Y152029
X78430Y152019
X90912Y130414
X81506Y161834
X77104Y177976
X77109Y179482
X77669Y180247
X76440Y180258
X85945Y177976
X85930Y179493
X85369Y180247
X86650Y180247
X78769Y177247
X79869Y177247
X83169Y177247
X84269Y177247
X82069Y172297
X81519Y172847
X80969Y172297
X81519Y171747
X82069Y171197
X82619Y171747
X82619Y172847
X80419Y172847
X80419Y171747
X80969Y171197
X77119Y166797
X76569Y167347
X85919Y166797
X86469Y167347
X77669Y167897
X78769Y168997
X85369Y167897
X84269Y168997
X82069Y177247
X80969Y177247
X86629Y178753
X76450Y178747
X82619Y174497
X82619Y175597
X80419Y174497
X80419Y175597
X82619Y176697
X80419Y176697
X81534Y130734
X85164Y150876
X84773Y130569
X76904Y137389
X74165Y148394
X81628Y146952
X82276Y140650
X86233Y139789
X86241Y140467
X85552Y139835
X86921Y139809
X86210Y139101
X76744Y150086
X79746Y159164
X78260Y136690
X84646Y136014
X90805Y135072
X87884Y123495
X75237Y123510
X70648Y128120
X70648Y133083
X70640Y138577
X70640Y142878
X81674Y139758
X76063Y138689
X78448Y140769
X75311Y179324
X70866Y176784
X87757Y179324
X91821Y176530
X85141Y154968
X85126Y151839
X84635Y148120
X79055Y145075
X74612Y158138
X83368Y159083
X83734Y157305
X85954Y160993
X73914Y133858
X75184Y134620
X77724Y129921
X75819Y127762
X73353Y176448
X74654Y177284
X75799Y152270
X73177Y130111
X85481Y143805
X87780Y145369
X86606Y146863
X87914Y163909
X89799Y168318
X80330Y154290
X78989Y156289
X75499Y178371
X90650Y163716
X89464Y166964
X88007Y174305
X86798Y176123
X87612Y168542
X82334Y137201
X88727Y135448
X77300Y161572
X77328Y164554
X75098Y163175
X75766Y174508
X70668Y158509
X70655Y161054
X92410Y155974
X92390Y148341
X88387Y137950
X74173Y148867
X76261Y154991
X86576Y164219
X85319Y164300
X84079Y162913
X75105Y161933
X75054Y159842
X91143Y148354
X89733Y165870
X88034Y154752
X73711Y153975
X71935Y153416
X76431Y171656
X73546Y139591
X74292Y143848
X77450Y143655
X84353Y149253
X73640Y150144
X72095Y139878
X88019Y142540
X81641Y144549
X87590Y171033
X92398Y171175
X82641Y127038
X83226Y127013
X82641Y126454
X80315Y145898
X80315Y145357
X81534Y133045
X88847Y136804
X79682Y151818
X80234Y151818
X83213Y126462
X87267Y126350
X85024Y149906
X77254Y152001
X80368Y149931
X79093Y147127
X77531Y148300
X87559Y146187
X74577Y135494
X87574Y156604
X86418Y143210
X86035Y162499
X86985Y156291
X85742Y143206
X86048Y161729
X90297Y145885
X85268Y146296
X85942Y144905
X85905Y159172
X78623Y123871
X78791Y155605
X80785Y127810
X81786Y127805
X90373Y165809
X84519Y147152
X73983Y130830
X72647Y153411
X84285Y171193
X72756Y174475
X73972Y131829
X73190Y152850
X85395Y170089
X89309Y163121
X76825Y163297
X88514Y159748
X76302Y162278
X75336Y163881
X88740Y164849
X75819Y162951
X78773Y171188
X86967Y174475
X85938Y163891
X86698Y166715
X86959Y171028
X73447Y165357
X77682Y170095
X74341Y160327
X74859Y156225
X77701Y169014
X74440Y161869
X73518Y159271
X83795Y155936
X83345Y159779
X77257Y156713
X87578Y158471
X86032Y163231
X78776Y172288
X82547Y130973
X74851Y136545
X83774Y136004
X91023Y131529
X90658Y137843
X83325Y162311
X10693Y42609
X10686Y41907
X10051Y41902
X9205Y30584
X9710Y30574
X9708Y30058
X9205Y30069
X3947Y9893
X9528Y34399
X2416Y7681
X14559Y22814
X11664Y20028
X11687Y19568
X8374Y19990
X7818Y19995
X7816Y29093
X8326Y29083
X20808Y7478
X11402Y38898
X7000Y55040
X7005Y56546
X7565Y57311
X6336Y57322
X15841Y55040
X15826Y56557
X15265Y57311
X16546Y57311
X8665Y54311
X9765Y54311
X13065Y54311
X14165Y54311
X11965Y49361
X11415Y49911
X10865Y49361
X11415Y48811
X11965Y48261
X12515Y48811
X12515Y49911
X10315Y49911
X10315Y48811
X64210Y97003
X10865Y48261
X7015Y43861
X6465Y44411
X15815Y43861
X16365Y44411
X7565Y44961
X8665Y46061
X15265Y44961
X14165Y46061
X11965Y54311
X10865Y54311
X16525Y55817
X6346Y55811
X12515Y51561
X12515Y52661
X10315Y51561
X10315Y52661
X12515Y53761
X10315Y53761
X11430Y7798
X15060Y27940
X14668Y7633
X6800Y14453
X4061Y25458
X11524Y24016
X12172Y17714
X16129Y16853
X16137Y17531
X15448Y16899
X16817Y16873
X16106Y16165
X6640Y27150
X9642Y36228
X8156Y13754
X14542Y13078
X20701Y12136
X17780Y559
X5133Y574
X544Y5184
X544Y10147
X536Y15641
X536Y19942
X11570Y16822
X5959Y15753
X8344Y17833
X5207Y56388
X762Y53848
X17653Y56388
X21717Y53594
X15037Y32032
X15022Y28903
X14531Y25184
X8951Y22139
X4508Y35202
X13264Y36147
X13630Y34369
X15850Y38057
X3810Y10922
X5080Y11684
X7620Y6985
X5715Y4826
X3249Y53512
X4550Y54348
X5695Y29334
X3073Y7175
X15377Y20869
X17676Y22433
X16502Y23927
X17810Y40973
X19695Y45382
X10226Y31354
X8885Y33353
X5395Y55435
X20546Y40780
X19360Y44028
X17903Y51369
X16694Y53187
X17508Y45606
X12230Y14265
X18623Y12512
X7196Y38636
X7224Y41618
X4994Y40239
X5662Y51572
X564Y35573
X551Y38118
X22306Y33038
X22286Y25405
X18283Y15014
X4069Y25931
X6157Y32055
X16472Y41283
X15215Y41364
X13975Y39977
X5001Y38997
X4950Y36906
X21039Y25418
X19629Y42934
X17930Y31816
X3607Y31039
X1831Y30480
X6327Y48720
X3442Y16655
X4188Y20912
X7346Y20719
X14249Y26317
X3536Y27208
X1991Y16942
X17915Y19604
X11537Y21613
X17486Y48097
X22294Y48239
X12537Y4102
X13122Y4077
X12537Y3518
X10211Y22962
X10211Y22421
X11430Y10109
X18743Y13868
X9578Y28882
X10130Y28882
X13109Y3526
X17163Y3414
X14920Y26970
X7150Y29065
X10264Y26995
X8989Y24191
X7427Y25364
X17455Y23251
X4473Y12558
X17470Y33668
X16314Y20274
X15931Y39563
X16881Y33355
X15638Y20270
X15944Y38793
X20193Y22949
X15164Y23360
X15838Y21969
X15801Y36236
X8519Y935
X8687Y32669
X10681Y4874
X11682Y4869
X20269Y42873
X14414Y24216
X3879Y7894
X2543Y30475
X14181Y48257
X2652Y51539
X3868Y8893
X3086Y29914
X15291Y47153
X19205Y40185
X6721Y40361
X18410Y36812
X6198Y39342
X5232Y40945
X18636Y41913
X5715Y40015
X8669Y48252
X16863Y51539
X15834Y40955
X16594Y43779
X16855Y48092
X3343Y42421
X7578Y47159
X4237Y37391
X4755Y33289
X7597Y46078
X4336Y38933
X3414Y36335
X13691Y33000
X13241Y36843
X7153Y33777
X17474Y35535
X15928Y40295
X8672Y49352
X12443Y8037
X4747Y13609
X13670Y13068
X20919Y8593
X20554Y14907
X13221Y39375
X33409Y42629
X34061Y42609
X34054Y41907
X33419Y41902
X32573Y30584
X33078Y30574
X33076Y30058
X32573Y30069
X27315Y9893
X32896Y34399
X25784Y7681
X37927Y22814
X35032Y20028
X35055Y19568
X31742Y19990
X31186Y19995
X31184Y29093
X31694Y29083
X44176Y7478
X34770Y38898
X30368Y55040
X30373Y56546
X30933Y57311
X29704Y57322
X39209Y55040
X39194Y56557
X38633Y57311
X39914Y57311
X32033Y54311
X33133Y54311
X36433Y54311
X37533Y54311
X35333Y49361
X34783Y49911
X34233Y49361
X34783Y48811
X35333Y48261
X35883Y48811
X35883Y49911
X33683Y49911
X33683Y48811
X34233Y48261
X30383Y43861
X29833Y44411
X39183Y43861
X39733Y44411
X30933Y44961
X32033Y46061
X38633Y44961
X37533Y46061
X35333Y54311
X34233Y54311
X39893Y55817
X29714Y55811
X35883Y51561
X35883Y52661
X33683Y51561
X33683Y52661
X35883Y53761
X33683Y53761
X34798Y7798
X38428Y27940
X38037Y7633
X30168Y14453
X27429Y25458
X34892Y24016
X35540Y17714
X39497Y16853
X39505Y17531
X38816Y16899
X40185Y16873
X39474Y16165
X30008Y27150
X33010Y36228
X31524Y13754
X37910Y13078
X44069Y12136
X41148Y559
X28501Y574
X23912Y5184
X23912Y10147
X23904Y15641
X23904Y19942
X34938Y16822
X29327Y15753
X31712Y17833
X28575Y56388
X24130Y53848
X41021Y56388
X45085Y53594
X38405Y32032
X38390Y28903
X37899Y25184
X32319Y22139
X27876Y35202
X36632Y36147
X36998Y34369
X39218Y38057
X27178Y10922
X28448Y11684
X30988Y6985
X29083Y4826
X26617Y53512
X27918Y54348
X29063Y29334
X26441Y7175
X38745Y20869
X41044Y22433
X39870Y23927
X41178Y40973
X43063Y45382
X33594Y31354
X32253Y33353
X28763Y55435
X43914Y40780
X42728Y44028
X41271Y51369
X40062Y53187
X40876Y45606
X35598Y14265
X41991Y12512
X30564Y38636
X30592Y41618
X28362Y40239
X29030Y51572
X23932Y35573
X23919Y38118
X45674Y33038
X45654Y25405
X41651Y15014
X27437Y25931
X29525Y32055
X39840Y41283
X38583Y41364
X37343Y39977
X28369Y38997
X28318Y36906
X44407Y25418
X42997Y42934
X41298Y31816
X26975Y31039
X25199Y30480
X29695Y48720
X26810Y16655
X27556Y20912
X30714Y20719
X37617Y26317
X26904Y27208
X25359Y16942
X41283Y19604
X34905Y21613
X40854Y48097
X45662Y48239
X35905Y4102
X36490Y4077
X35905Y3518
X33579Y22962
X33579Y22421
X34798Y10109
X42111Y13868
X32946Y28882
X33498Y28882
X36477Y3526
X40531Y3414
X38288Y26970
X30518Y29065
X32357Y24191
X30795Y25364
X40823Y23251
X27841Y12558
X40838Y33668
X39682Y20274
X39299Y39563
X40249Y33355
X39006Y20270
X39312Y38793
X43561Y22949
X38532Y23360
X39206Y21969
X39169Y36236
X31887Y935
X32055Y32669
X34049Y4874
X35050Y4869
X43637Y42873
X37783Y24216
X27247Y7894
X25911Y30475
X37549Y48257
X26020Y51539
X27236Y8893
X26454Y29914
X38659Y47153
X42573Y40185
X30089Y40361
X41778Y36812
X29566Y39342
X28600Y40945
X42004Y41913
X29083Y40015
X32037Y48252
X40231Y51539
X39202Y40955
X39962Y43779
X40223Y48092
X26711Y42421
X51816Y134620
M30